<svg id="Lager_1" data-name="Lager 1" xmlns="http://www.w3.org/2000/svg" viewBox="0 0 366.15 294.57"><defs><style>.cls-1{fill:#f2eae4;}</style></defs><title>shoppingcart</title><path class="cls-1" d="M252.66,324.18q-44.47,0-89,0c-6.89,0-8-1.1-8.66-8q-7.32-73.33-14.76-146.65a21,21,0,0,0-9.13-15.34Q99.39,132.07,67.53,110c-1.76-1.22-4-2.4-4.8-4.16A7.44,7.44,0,0,1,63,99.63c.87-1.27,3.67-1.62,5.62-1.62,1.3,0,2.65,1.25,3.88,2.1,22,15.26,44.14,30.45,66,46,3.1,2.19,5.56,5.64,7.53,9,1.85,3.12,3.83,4.24,7.47,4.24q75.74-.19,151.46-.09,57.48,0,115,0c8.17,0,10.27,3.34,6.62,10.58Q389,244.51,351.36,319.22c-2,3.91-4.61,5-8.72,5C312.65,324.13,282.66,324.18,252.66,324.18ZM151.73,170.74c.65,6.61,1.25,13,1.92,19.43.77,7.49-.9,7,7.87,7q104.72,0,209.43,0c8.5,0,17-.06,25.48-.33,1.58,0,3.92-.8,4.56-2,4.2-7.7,8-15.6,12.33-24.14Zm3.81,38.1c.74,7.62,1.86,15,2,22.47.13,5.25,2.28,6.09,7,6.07,67.13-.23,134.27-.54,201.4-.07,10.59.08,17.22-2.18,20.36-12.67,1.23-4.08,3.8-7.75,5.69-11.65a41.82,41.82,0,0,0,1.45-4.15ZM373.93,249H159.52c.87,8.92,1.59,17.51,2.71,26,.13.95,2.59,2.23,4,2.26,9,.21,18,.13,27,.11q80.47-.14,161-.35c2,0,5.22-.11,5.89-1.29C364.83,267.28,369.1,258.5,373.93,249Zm-20.29,40.11H163.51c.6,6.61,1.31,12.73,1.65,18.87.21,3.9,1.61,5.28,5.75,5.25,27.33-.2,54.65-.07,82-.11q42-.06,84-.33c1.94,0,4.89-.56,5.63-1.85C346.33,304.21,349.62,297.15,353.64,289.12Z" transform="translate(-62.19 -98.01)"/><path class="cls-1" d="M292,363.21a29.42,29.42,0,1,1,58.84,0,29.42,29.42,0,0,1-58.84,0Zm11-.06a18.26,18.26,0,0,0,18,18.17c9.92-.05,18.36-8.19,18.52-17.86a18.64,18.64,0,0,0-18.7-18.69C311.1,344.79,303,353.16,303,363.15Z" transform="translate(-62.19 -98.01)"/><path class="cls-1" d="M154.79,362.75a29.29,29.29,0,0,1,29.3-29.16c16.24,0,29.88,13.56,29.59,29.52-.29,16.5-13.52,29.62-29.69,29.45A29.39,29.39,0,0,1,154.79,362.75Zm47.36.44a18.33,18.33,0,0,0-18.33-18.43,18.3,18.3,0,0,0-.27,36.58A18.33,18.33,0,0,0,202.15,363.19Z" transform="translate(-62.19 -98.01)"/></svg>