<svg xmlns="http://www.w3.org/2000/svg" viewBox="0 0 527.19 242.68"><defs><style>.cls-1{font-size:127px;fill:#8c766d;font-family:Poppins-Black, Poppins;font-weight:800;}.cls-2{fill:#f2eae4;}</style></defs><title>modetivebrown</title><g id="mood"><text class="cls-1" transform="translate(46.5 163.05)">mode</text></g><g id="Lager_2" data-name="Lager 2"><path class="cls-2" d="M354.31,97.86c.29-.11-1.5-1.21-1.79-1.45C352.67,97,354.76,98.15,354.31,97.86Z"/><polygon class="cls-2" points="355.86 104.07 355.19 103.53 356.58 105.22 355.86 104.07"/><path class="cls-2" d="M353.59,107.37c3.17,1.68.33-1.53,1.79-1.41l.74.36-2.21-1.87C353.81,105.42,354.76,107.42,353.59,107.37Z"/><path class="cls-2" d="M346,104.83c1.23.67.74,1,.64-.17a3.24,3.24,0,0,1-.34-.12A.58.58,0,0,1,346,104.83Z"/><path class="cls-2" d="M346.29,104.54c.15-.41-1.12-.42,0,0Z"/><path class="cls-2" d="M345.86,106.6l-.71-1.15c-.75-.37-1.18-.06-1.57-.55C343.82,105.76,344.57,106.11,345.86,106.6Z"/><path class="cls-2" d="M347.73,108.49l-.27-.53C347.14,107.81,347,107.8,347.73,108.49Z"/><path class="cls-2" d="M346.88,106.83l.58,1.13c.52.25,1.48.89-.18-.46C348.13,108.13,347.35,107.47,346.88,106.83Z"/><path class="cls-2" d="M347.52,106.85a2.44,2.44,0,0,1,2.16,1.27C349.87,107,347.7,105.69,347.52,106.85Z"/><path class="cls-2" d="M356.54,109.6l1.1.24-.79-1C357.24,109.35,355.6,109,356.54,109.6Z"/><path class="cls-2" d="M342.4,108.44c.61.45,1.78,1,2.61,1.48l-.49-.83A4.59,4.59,0,0,1,342.4,108.44Z"/><path class="cls-2" d="M345,109.92l.74,1.24C346.18,110.79,345.73,110.36,345,109.92Z"/><polygon class="cls-2" points="350.96 110.78 349.25 108.42 350.88 110.97 350.96 110.78"/><polygon class="cls-2" points="341.01 110.33 339.75 109.06 341.6 111.06 341.01 110.33"/><path class="cls-2" d="M340.4,111.79c-1.07-1-2.24-1.08-2.84-1.81,0,.5.82,1.5,1.57,2.39C338.8,111.74,339.14,111.52,340.4,111.79Z"/><path class="cls-2" d="M340.19,113.74a14.59,14.59,0,0,0-1.06-1.37A6.39,6.39,0,0,0,340.19,113.74Z"/><path class="cls-2" d="M344.85,111.82a5.66,5.66,0,0,0-2.06-.81l1.9,1Z"/><path class="cls-2" d="M344.75,112l-.06,0a3.12,3.12,0,0,1-.39.36Z"/><path class="cls-2" d="M344.9,111.77l0,0C345,111.91,345.11,111.94,344.9,111.77Z"/><path class="cls-2" d="M348.46,111c.79,1,1.43,2.31,3.35,2.72C350.74,112.73,349.65,112.49,348.46,111Z"/><path class="cls-2" d="M347.28,113l.77-.27a6.8,6.8,0,0,1-1.62-1.14Z"/><polygon class="cls-2" points="347.66 113.66 347.28 113.01 346.99 113.11 347.66 113.66"/><path class="cls-2" d="M342.47,113.93c.61.75.51,1,.43,1.42a1.56,1.56,0,0,0,1.17-.57C343.54,114.36,342.63,113.56,342.47,113.93Z"/><path class="cls-2" d="M343.73,113.11s0,.08.07.12S344,113.31,343.73,113.11Z"/><path class="cls-2" d="M341,118.19l.35.17-.3-.22Z"/><path class="cls-2" d="M344.43,115c.5,0,.16-.43-.3-.93a1.13,1.13,0,0,1-.06.76C344.3,115,344.47,115.08,344.43,115Z"/><path class="cls-2" d="M340.48,115.09a8.12,8.12,0,0,0,1.25.25C341.09,115.08,340.05,114.74,340.48,115.09Z"/><path class="cls-2" d="M343.26,113a.47.47,0,0,1-.06-.09C342.77,112.71,343,112.83,343.26,113Z"/><path class="cls-2" d="M343.26,113a8.69,8.69,0,0,0,.87,1,2.06,2.06,0,0,0-.33-.79A4.81,4.81,0,0,1,343.26,113Z"/><path class="cls-2" d="M351.78,126.71c-1.62-1.15-2.72-2.78-.61-2.12-.88-1.35-6.51-4.65-9.84-6.23a5.23,5.23,0,0,1,2,2.13c1,.42,2.9.23,4.08,1.68.37,1.28-1,.19-2.07,0,2.24,1.08,2.37,2.9,5.48,4.78l-.64-1.34C350.64,125.87,351.23,126.59,351.78,126.71Z"/><path class="cls-2" d="M342.19,117.45l-.06-.35a8.28,8.28,0,0,1-2.74-.74,5.88,5.88,0,0,0,1.64,1.78l1-.93Z"/><path class="cls-2" d="M342.79,116.11c1.67,1.37,2.07,2.41,4.23,3.39.31-.73-1.19-1.46-1.71-2.37-.26,1.34-.79-1-2.31-.9a1.38,1.38,0,0,1-.1-.88,4.18,4.18,0,0,1-1.17,0l.12,0h0l0,0c.25.1.4.18.23.14,0,0,0,0,0,0,.24.17.44.34.64.5-.57.05-.5-.27-.64-.5l-.26-.19,0,0,.28,1.71C342.53,117,342.66,116.73,342.79,116.11Z"/><path class="cls-2" d="M355.28,116.9a2.56,2.56,0,0,1-.44-.24C355,116.87,355.15,117,355.28,116.9Z"/><path class="cls-2" d="M353.91,116.61c-.2-.25-.87-.79-.52-.92.68.15.86.58,1.45,1a3.06,3.06,0,0,0-2.11-1.51l.19.24a11,11,0,0,1-3.69-1.19A50.46,50.46,0,0,0,353.91,116.61Z"/><path class="cls-2" d="M348.78,116.69l.3,1.46,1.84.6-.94-.6C350.67,117.9,349.46,117.23,348.78,116.69Z"/><polygon class="cls-2" points="340.02 117.69 338.21 116.3 340.54 118.6 340.02 117.69"/><polygon class="cls-2" points="339.49 118.97 337.88 117.83 338.67 118.79 339.49 118.97"/><path class="cls-2" d="M291.21,128.46l-.64-.22A1.69,1.69,0,0,0,291.21,128.46Z"/><path class="cls-2" d="M291.93,131.19l.94-.25C292.32,131,291.93,131.07,291.93,131.19Z"/><path class="cls-2" d="M327.26,136.9c-.63-2.31-1.34-6.09-.82-3.13l.53,2.85C327,136.05,327.08,136.34,327.26,136.9Z"/><path class="cls-2" d="M312.36,143.22l-.34.61c.56-.48,1.07-.94,1.54-1.38C313.2,142.7,312.79,143,312.36,143.22Z"/><path class="cls-2" d="M306.14,149.74c.12-.56.25-1.13.39-1.68A4.87,4.87,0,0,0,306.14,149.74Z"/><path class="cls-2" d="M286.3,115.14l-2.24-.08C284.15,115.64,285.22,115.23,286.3,115.14Z"/><path class="cls-2" d="M332.37,131a2.45,2.45,0,0,0-1.63.07C332,131.36,333.8,132.09,332.37,131Z"/><path class="cls-2" d="M313.54,122.77a3.76,3.76,0,0,0-1.33.19A3,3,0,0,0,313.54,122.77Z"/><path class="cls-2" d="M330.4,131.58l.45.25a4.33,4.33,0,0,1-.29-.38c-.06-.1,0-.31.18-.4a4.65,4.65,0,0,0-.65-.11h-.24c-.05,0-.09,0-.11,0S329.82,131.09,330.4,131.58Z"/><path class="cls-2" d="M282.85,70.72a2.6,2.6,0,0,1,.24-.13C282.8,70.61,282.79,70.66,282.85,70.72Z"/><path class="cls-2" d="M303.31,55.69c.15.11.17.31.22.5C303.67,56.09,303.64,55.93,303.31,55.69Z"/><path class="cls-2" d="M335.65,123c0-.32-.18-.17,0,0Z"/><path class="cls-2" d="M343.55,126.61a4.26,4.26,0,0,0,.81.69A4.87,4.87,0,0,1,343.55,126.61Z"/><path class="cls-2" d="M339.69,142l0,0C340,142.21,340,142.16,339.69,142Z"/><path class="cls-2" d="M336.71,123.18a2.5,2.5,0,0,0-.74-.06A2.48,2.48,0,0,0,336.71,123.18Z"/><path class="cls-2" d="M335.82,122.65a1.58,1.58,0,0,0,.32-.09C335.86,122.33,335.65,122.23,335.82,122.65Z"/><path class="cls-2" d="M335.52,123.39c.06-.16.23-.23.45-.27a.65.65,0,0,1-.32-.13A2.17,2.17,0,0,1,335.52,123.39Z"/><path class="cls-2" d="M291.27,93.7a2,2,0,0,1,.2-.09C290.54,93.43,290.7,93.54,291.27,93.7Z"/><path class="cls-2" d="M322.77,164s0-.07.05-.1l-.05-.09Z"/><path class="cls-2" d="M321.34,165.22c.84-2.59,1.05-2.11,1.43-1.4,0-2.18.06-4.37.14-6.57Q322.22,161.21,321.34,165.22Z"/><path class="cls-2" d="M289.13,122.35l-1.74,1.22c-3.35-.4-2.42-1.41-4.95-.07,3.35-.56,3.67.23,4,1s.72,1.65,4,.93l-1.25.9c0-.18-.37-.11-.34-.29-2.88,1.91,5-.35,4.39,1.24a2.28,2.28,0,0,1-2.09,1.13l1.94.63c0,.35-1.17.63-1.15.27.34.51.7,1,1.07,1.53l-.2.05c1.1-.1,2.83-.12,3.58-.11-.76.75-.75,0-1.51.44.63.11,1.26.22,1.88.31-1.5,1-3.38.87-3.39.12-3,1.6-2.53,1.69-1.68,1.74s2.08.07.67,1.83l-1.19-.61c-3.31,2.09-1.7,2.32-3.35,4.45.5-.4,1.62-1.6,2.89-2.6s2.67-1.82,3.68-1.65c-.34.48-.38,1,1.1.94-2.18,1-1.39,1.34-.93,1.92l-2.88,1.4c1.21.34,2.62-.48,4.11-.74.13.9-1.93,2.26-3.64,3.49.15.78.88.06,1.75-.7s1.9-1.52,2.57-1c-.47,1.6,1.09,1.68,3.4,1.68-.49,1.25-1.7,1-2.31,1.71l2.5-.85c0,.17-.64.57-1,.77,1.14-.09,2.66-1.76,3.87-1.57,1.5-.92.69.16,0,1.33s-1.22,2.35.74,1.62c-.53.81-1.64,1.09-2.56,1.93a23.65,23.65,0,0,0,2.91-.16,14.49,14.49,0,0,0,3.12-1c-.25.78-.49,1.59-.7,2.42a7,7,0,0,1,2.58-2.85c1.08-.75,2.24-1.37,3.25-2,.61-1,1.13-1.91,1.43-2.42a16.84,16.84,0,0,0,1.78-.58,11.43,11.43,0,0,1-2,2.23c.22-.15.44-.31.63-.46a11,11,0,0,1-3.14,3.72c.29-.61.62-1.25,1-1.88a38.48,38.48,0,0,0-4.35,4.09,1.59,1.59,0,0,1,.91-.27,4.57,4.57,0,0,0-.94.92c-.19.3.39-.12,1.09-.56q-1,1.52-2,3.06l1-1c0,1.13.07,2.28.17,3.48a37.06,37.06,0,0,0,4.86-3.54c1.53-1.22,2.84-2.28,3.77-2.37-1.49,2.21-2,4.05-3.39,7.05.51-1.82.06-1.77-.63-1.52s-1.64.71-1.91,0c.27.79-.58,2-1,2.36a23.15,23.15,0,0,0,3.1-1.1c-1.21,2.38-.54,2.16-.55,3.64,1.88-5.19,2.64-2.17,3.83-3.18-.57,1.77-1.36,3.4-2,2.23-.29,2.31.61,1.14,1.45-.23s1.62-2.81,1.5-.8c-.2-.11-.21-.46-.57.36.47-.59.85-.36,1.05.19a2.81,2.81,0,0,1-.11,2.06l-.21-.11a3.2,3.2,0,0,0,2.58,1.46c1-.08,1.86-1,2.21-3.1,0,.58-.85,5.24-1.07,6.1.77-2.28,1.45-4.56,2-6.8l.43-1.69.2-.84.21-1.11c.28-1.49.53-3,.75-4.56-.1,1.22-.19,2.87-.27,4.71-.06,1.5-.12,3.14-.18,4.72-.11,3-.32,5.67-1.06,6.52.33.65.8,1.4,1.69.26-.28-.57-.44-5.5-.11-5.74a15.73,15.73,0,0,0,.73,3.25c.19.51.4.92,1.08,2.7-.42-.83-.06-6.48.47-6.32-.06.86.28,5.65.06,6.25.49-1.86.9-3.78,1.21-5.71-.27,1,.29,4.77.82,6.29-.13-.54.23-.58.67-.56s1,0,1.13-.31l-.84-1.12c.95.2,1.07-2,1.06-4.17s-.11-4.53.49-4.8c.14,1.27,1.14,7.45,2.1,7.74-.17-1.55-.62-5.26-1.21-9l-.11-.7-.15-.82-.3-1.64c-.19-1-.38-2-.57-3-.35-1.84-.64-3.3-.74-4.1l.76,1.82c-.1-.9-.24-1.79-.39-2.65.42,1.3.92,3,1.42,4.91.26,1,.51,2,.74,3,.12.5.25,1.1.34,1.55s.17.93.26,1.4a56,56,0,0,1,.9,9.48c.93,1,.7,1.88,1.54,1.17a2.6,2.6,0,0,1-.08,2.92,25.41,25.41,0,0,0,2.56-.36c-1.22-3.31.36-4.56-.85-7.31a39.85,39.85,0,0,1-.82,5.12,34.6,34.6,0,0,1-1.27-6.55c-.24-2.26-.32-4.16.26-4.4.82,1,2.27,6.16,2.72,7.26-.28-1.3.21-3.3.69-2.61.1.76.19,1.51.27,2.28.65.29.44-1.1.31-2.25s-.17-2.07,1-1c.35-.08,3.15,3.08,2.13,1.17a72,72,0,0,1-5.57-8.58c-1-1.74-2-3.58-2.9-5.13s-1.54-2.83-1.92-3.57c.09.1.74.77,1.58,1.55s1.84,1.64,2.51,2.34a22.58,22.58,0,0,1,3,4.54,19.64,19.64,0,0,0,2.68,4.37,12.8,12.8,0,0,1-1.13-2.56c.72.34,1.63,2.62,1.93,1.49-2-3,1.26-1.3-1.57-2.79-.14-1.5,1-.17,1.46-1.15a21.57,21.57,0,0,1-3-4,27,27,0,0,1-2.11-3.63,14.93,14.93,0,0,0,1.92,1.65c1-.9,2.62-.58,3.44-1.75a7.33,7.33,0,0,1,3,1.43c-.4-.49-1.26-1.27-1.11-1.64,2.86,1-.11,1,3.15,2.48-1.62-1.15-1.7-2.37-2.42-3.52-2.64-1.56-1.2.74-.49,1.89-3.5-2.35-6.63-5.62-7.51-7.81-.28-1.45,2.52,1.15,2.12.66,1.71-1.22-5.17-5.5-1.73-5.16,2.59,1,4.45,3,6.14,3.92.37,1.28-2.15.14-2.38.68l1.45.12c.59.72.83,1.57,0,1.4,2.31.89,2.25-2.5,4.94-2.52a5.7,5.7,0,0,0-2.13-2.06l.05.61c-2.05-.84-2-2.42-3.16-2.48-.91-1.39-2.49-3.33-1-3.4l2.64,1.58c-.75-.49-1.84-.53-1.21.2-.92-1.07,4.22,1.16,1.12-1.42l-2.12-.66c-.91-1.4-3.17-3.88-1.92-4-2.71-1.38.19.35-3.07-1.15,3.93,2.05-1.3,1.6,3,3.53-3.74-1.81-2-.13-5.35-1.46.85.55,1.76.86,1,1.14a8,8,0,0,1,.65.62h-.08l.12,0c.11.11.13.13,0,0a6.16,6.16,0,0,1,1.47.57c1.74,1.57,1.08,2.42,1.87,3.4-.62.06-.87-.79-1.89-1.21l1.19,1.45c-1.89-1.21-3.69-1.2-4.25-2.72l-.56.65c-1.33-.28-2.13,0-1.58.89-.63.06,1.5,2.23.23.95l.41,1.89-.47-.31c-.48.47-.09,1.55-.1,2.39a1,1,0,0,1-.48,1,1.59,1.59,0,0,1-.77.15,4.14,4.14,0,0,1-1.09-.46c.38.44.81,1,.16.87l-1.51-1.23c.21.29-.23.07-.51-.08s-.43-.2.26.58c-1.89-1.86-2.11-2.05-2-1.75s.51,1.09.18.76l1.51,2.29c-.2,0,.12.86.48,2.15l1.21,2.22c.39,1.07,0,.91-.43.48s-1-1.09-1.06-.77c-.36-1-.2-.82.1-.32-1.34-2.58-1-1.44-.78.09s.39,3.37-.42,1.23c.16,1.12,0,.85-.25.17a.56.56,0,0,0,0-.17s0,0,0,0l-.47-1.45c.19.68.35,1.23.45,1.48a4.73,4.73,0,0,0-.12,1.4l-.62-3.16a.37.37,0,0,0,0,.11c-.3-1.13.15,1.57.63,3.94,0,.57,0,1.25.09,2.06-.47-2.57-.49-2.09-.56-1.64s-.17.85-.54-2c.17,2.83-.63,2.21-.64,8,0-.76-.11-1.13,0-1.16-.29-.71-.52-1.39-.78.18l0-4.22c-.19,1.83-.44,3.63-.73,5.38a27.29,27.29,0,0,1,.28-7.2,11.69,11.69,0,0,1-.78,3,23.28,23.28,0,0,0-.89,2.8l.37-2.52c-.18,0-1,3-.82.83.19-2.53-.18-3.1-.65-3.72s-1.05-1.32-.63-3.46c-1.24,3-1.05,2.23-.8,1.3s.63-2-.51.14a19,19,0,0,1,1.64-3.23c-.5.47-.35-.18-.32-.5s-.07-.34-1.3,1.16c.77-1.22,1.24-1.66,1.69-2.4-.19.24-.8.93-.33.2a11.6,11.6,0,0,1,1.11-1.42c-.31,0-3,3.38-5.6,6.54.93-1.82.7-1.67-1.27.05.77-1.11,1.6-2.25,2.19-2.28,0-.17.08-.79-.08-1.07s-.62-.27-1.84.77c.56-.6,0-.44-.38-.27-.22-.6-.1-.92-.8-1.35l-.29.49c-3.3,2-1.09-.05-1.85-.31l.34-.21c.71-1.4.38-1.33,0-1.3s-.63,0,.34-1.43l-2,1.35c-2.22,1.32-1.76.61-1-.35s1.89-2.15.83-2l-1.05.94c-.88.23.48-.92,2.14-2.16s3.65-2.55,3.86-2.85a2,2,0,0,1,1-.28c2.3-2.17-2.86,1.33-3.85,1,1.48-.84,3.95-1.72,4.06-2.25.58-.38-.81-.07-2,0s-2.22,0-.81-.91a8.61,8.61,0,0,1-3.38,1.21c-.33-.19.7-1,1.33-1.58s.83-1-1.23-.67a5,5,0,0,1,.95-.39c-1.14-.11-2.09-.92-4.32-.67,3.95-1.24,2.81-1.66,1.6-2.11s-2.49-.89,1.26-1.62c-.23-.45-.45-.93-.68-1.4l.78-.1c.33-1-1.53-1.08-3.4-1.16a3.74,3.74,0,0,1,1.61-.3c1.29-1.7,1-1.77-3-2.53l2.44-.46c-1.48-.16,3.56-2.72.49-3.9a4.37,4.37,0,0,1,1.13,0c-3.11-1.36,6.29-5-2.75-4.5l-2.35-.86c-.51,1.57-3.91.27-5.32,1.06-.6-.52,2.51-1.84,3.06-1.19l-.43.17c4.7-.32,1.42-2,4.61-2.4-.6-2.88,1.64-6,1.52-8.77l-3.6.75.1-1c.81-.35,2.8-.67,2.73,0,2-.6-1.86-.93-2.65-.85,1.31-1.51,4.29,0,4.33-.41l-.33-.52-.41.18c-1.54-.27-3.12-.13-3-1,.66-.6,2.2-.53,2.32-.75.26,0,.37-.11.07-.32l.17-1.24-2.81.82c-1.48-.37,0-1.15-3.17-.21,4.91-1.4,1.28-4.68,2.78-5.36-2.17-.51-2.22-1.25-2.07-2.19-.57.3-3.78.8-3.48,0,6.69-.46,2.73-1.76,7.45-2.93-3.11.92-1-2.14-5.44-.75.46-.72,2.49-.32,4-1-2.75-1.28,1.3-3.62.22-5.45a11.41,11.41,0,0,1-3.52.26l4.26-1.49c-.47-.33-5.08.19-2.12-.83-.73.18-1.82.44-2.13.22,3.87-4.22-4.3-7.38,3.34-12-1.65.68-1.85.35-2,0-.38.3-2.17.21-3.35.38l3.14-1.93c-3.32,0-.39-1.7-3.55-1.56l.61.45c-3.78-.32-8.16,1.76-12.94,2.12,4.3.35-6.06,2.64.11,3.29-.94.38-1.55-.08-2.65.18,2.08.11,2.54.45,1.7,1.26l-.52,0c.7,1.94-1.22,3-2.33,5.39l2.34-.41c-.27.52-1,.69-1.56,1,3.63.18.06-1.38,4.05-1.28-4.73,1.14.28,3.41-5.12,4.41.05.75,2.7-.5,2.75.24l-1.45.36,1.92,0c-.27.52-2.08,1-3.33,1.11.14-.13-.38-.29-.5-.41-1.67.82.78,1.72.23,2l.84-.81c1.59,1.87-.07,4.56,3.14,6.19l1.09-.27c2.22,1.26-1.09,1.33.05,2.86l-.27,0c1.14.21,1.75.58,1.67,1-1.35-.26-2.44,1.07-3.94.69,2.39,1.37,1.82.6,6.07,1.2l-1.81.46c1.71.17,2.59.1,3.16.86-1.66-.49-2.75.85-4.93.33-3.83,2.19,4.37,2.08-1.43,3.55,5.19.2,2.65-1.81,3.8-1.49,1.62-.57,3.88.2,3.43.8-.05.56-6.41,1.69-6.15,3.06,0-.14-.38-.1-.37-.24-1.24.67,1.88.8-.16,1.68,3.12,0-.08.85,3.86.48l-1.06-1.15c1.12.59,5.79.72,3.7,2.16a10.92,10.92,0,0,1-2.5-.39c-1.11.48.85.57-.29,1.07-4,.37-1-1.44-4.13-1.85-1.62.57,3,1.12-1.29,1.24,5.48-.09-.52,1.44,3.73,1.88l-2.36.22c.39.11,1.53.28,1.51.56l-3.12-.13c2.7.45-2.1,1.74-.59,2.3-.26-1.52,2.79-.69,4.43-1.54,3.39,1.49-6,1.83-4.64,3.79-.36-.24,1.29-1.24,2.43-.93a6.08,6.08,0,0,1-2.48,1.5c.66,1.33,2.4-.52,3.92-.1-2.81.83,1.25.54,2.24,1l-2.39.3c-1.34,1.78,5-.2,3.36,1.46l-3.39-.19,1,.64-2.74.18c2.12.56,1.63.88,1,1.77,1.66-.4,4.35-.45,4.52.24-1.37.66-2.31,0-1.85,1-1.52,0-3.43,0-1.28-.75-.79,0-1.53,0-2.31,0-1.57.72-.21,1.34-.14,1.7a.84.84,0,0,1,.51-.46l3.5,1a4.44,4.44,0,0,1-2.34.16c.29.26,1.42.32,1.68.73-2,.14-4,.42-5-.07l2.34,1.1c-.84.2-2.23,1-3,.92-1,.91,4,1.38,2.64,2.63a2.22,2.22,0,0,1,1.07.25c-.3,1-2.56,2.31.29,3.14l-3.36,1.25c.95.86,4.22-1.65,5.79-.25,1.29,1-2.89.93-3.78,1.5,1.85.32,5.57.62,3,2.26C289,123,289.46,122.64,289.13,122.35Zm5.35,12.46c-.58,0-2.23.05-1-.69C296.16,133.35,295,134.07,294.48,134.81Zm16.18,13.47c-.62.51-.6-.06-.25-1C310.69,147.27,310.82,147.54,310.66,148.28Zm24.85-21.57.08.08C334.55,126.66,335,126.73,335.51,126.71Zm1.41-.23a2.29,2.29,0,0,0-.81-.6c.47.4.38.6.1.71C336.77,126.89,337.21,127,336.92,126.48ZM307,88.73l-.61.26C305.69,88.64,306.33,88.69,307,88.73Z"/><path class="cls-2" d="M306.88,149a7.91,7.91,0,0,1,.79-1.09A1.73,1.73,0,0,0,306.88,149Z"/><path class="cls-2" d="M286.71,115.15s0,0,0,0a3.11,3.11,0,0,0-.43,0Z"/><path class="cls-2" d="M343.26,153.56a2.2,2.2,0,0,1-1.08-.65C342.52,153.44,342.89,153.78,343.26,153.56Z"/><path class="cls-2" d="M336.41,119.9l.17.87c.07-.32.57-.11,1,0C337.08,120.44,336.33,120.08,336.41,119.9Z"/><path class="cls-2" d="M351.83,123.73c-.2-.24.08-.18-.12-.42l-.94-.61C350.61,123.07,351.21,123.8,351.83,123.73Z"/><path class="cls-2" d="M343.38,123.89c1.71,1.1,1.36.39,1.3-.19,0,0,0,.06-.05.07C342.35,122.07,342.87,123,343.38,123.89Z"/><path class="cls-2" d="M344.68,123.58c0-.16,0-.31.18-.36C343.94,122.54,344.57,123.22,344.68,123.58Z"/><path class="cls-2" d="M336.5,124.7c.55.12-2.08-1.55-1.33-1.19C333.16,121.88,337,126.41,336.5,124.7Z"/><polygon class="cls-2" points="349.13 127.33 346.96 126.06 348.5 127.4 349.13 127.33"/><path class="cls-2" d="M345.67,129.18l1-.2a1.48,1.48,0,0,1-.61-.63C345.72,128.66,345,128.78,345.67,129.18Z"/><path class="cls-2" d="M346,128.35c.17-.16.24-.37,0-.7A.9.9,0,0,0,346,128.35Z"/><polygon class="cls-2" points="349.22 128.55 348.67 128.43 348.24 128.74 349.22 128.55"/><path class="cls-2" d="M341.07,135.15l.16,1c.67.54,1.23.66,1.1.24C341.94,135.94,341.82,135.52,341.07,135.15Z"/><path class="cls-2" d="M348.05,137.07a8.46,8.46,0,0,1-1.77-.79l2.56,1.76Z"/><path class="cls-2" d="M347.4,139.32c.68.54,1.44,2.3,1.82,1.39C348.55,140.17,348.38,139.13,347.4,139.32Z"/><polygon class="cls-2" points="337.37 147.15 337.46 146.94 334.49 142.29 337.37 147.15"/><path class="cls-2" d="M332.4,167.08c1.47.8-.31-3.25,1-2.17,0-1.33-1.08-.87-1-2C332,164.43,331.47,163.83,332.4,167.08Z"/><path class="cls-2" d="M332.41,162.87a6.94,6.94,0,0,0,.16-.94A4.25,4.25,0,0,0,332.41,162.87Z"/><polygon class="cls-2" points="305.82 53.31 306.82 52.63 305.16 53.17 305.82 53.31"/><path class="cls-2" d="M302,52.57l3.21-.45-2.95-.06C302.37,52.17,302.68,52.4,302,52.57Z"/><path class="cls-2" d="M289.5,139.6l.73-.29c.7-.49.66-.68.62-1.09Z"/><polygon class="cls-2" points="287.9 128.41 287.88 128.6 290.63 127.52 287.9 128.41"/><path class="cls-2" d="M282.52,121.11c-.07.34.64.6.58,1C282.44,121.44,286.12,120.43,282.52,121.11Z"/><path class="cls-2" d="M273.36,123.24a547.94,547.94,0,0,1,90-74.28"/><path class="cls-2" d="M356.57,38.87c.25.06-1-1.66-1.15-2A6.68,6.68,0,0,0,356.57,38.87Z"/><polygon class="cls-2" points="356.79 44.45 356.36 43.71 357.17 45.69 356.79 44.45"/><path class="cls-2" d="M354.52,45.92c2.21,2.82.49-1,1.6-.24l.52.63-1.42-2.5C355,44.51,355.42,46.52,354.52,45.92Z"/><path class="cls-2" d="M349,40.33c.85,1.1.41,1.17.53.17a2.93,2.93,0,0,1-.25-.25S349.16,40.34,349,40.33Z"/><path class="cls-2" d="M349.27,40.25c.18-.25-.81-.87,0,0Z"/><path class="cls-2" d="M348.61,41.65l-.38-1.24c-.53-.63-.91-.59-1.14-1.15C347.15,40,347.67,40.67,348.61,41.65Z"/><path class="cls-2" d="M349.79,44l-.14-.55C349.43,43.2,349.32,43.13,349.79,44Z"/><path class="cls-2" d="M349.37,42.31l.28,1.15c.37.45,1,1.4-.07-.43C350.15,43.92,349.65,43,349.37,42.31Z"/><path class="cls-2" d="M349.87,42.63a3.46,3.46,0,0,1,1.49,2C351.68,43.83,350.19,41.81,349.87,42.63Z"/><path class="cls-2" d="M356.47,49.06l.82.71-.47-1.13C357.05,49.2,355.83,48.14,356.47,49.06Z"/><path class="cls-2" d="M345.62,41.47c.41.64,1.25,1.6,1.83,2.38l-.27-.88A6.17,6.17,0,0,1,345.62,41.47Z"/><path class="cls-2" d="M347.45,43.85l.39,1.31C348.24,45.08,347.94,44.53,347.45,43.85Z"/><polygon class="cls-2" points="351.96 47.32 350.98 44.67 351.88 47.42 351.96 47.32"/><polygon class="cls-2" points="344.25 42.3 343.44 40.72 344.6 43.15 344.25 42.3"/><path class="cls-2" d="M343.54,43.16c-.68-1.29-1.6-1.88-2-2.73a7.86,7.86,0,0,0,.88,2.6C342.29,42.38,342.59,42.37,343.54,43.16Z"/><path class="cls-2" d="M343.09,44.58c-.11-.35-.36-.93-.63-1.55A8,8,0,0,0,343.09,44.58Z"/><path class="cls-2" d="M347,45.26a8,8,0,0,0-1.5-1.6l1.35,1.66Z"/><path class="cls-2" d="M346.93,45.38l0-.06a1.77,1.77,0,0,1-.36.11Z"/><path class="cls-2" d="M347.08,45.24l0,0C347.17,45.42,347.22,45.47,347.08,45.24Z"/><path class="cls-2" d="M350,46.34A8,8,0,0,0,352.19,50,35.21,35.21,0,0,1,350,46.34Z"/><path class="cls-2" d="M348.77,47.32l.64.16a10.53,10.53,0,0,1-1.1-1.65Z"/><polygon class="cls-2" points="348.97 48.01 348.77 47.33 348.53 47.27 348.97 48.01"/><path class="cls-2" d="M344.86,45.79c.37.88.24,1.06.13,1.31.45.21.8.24,1,.1C345.64,46.63,345,45.58,344.86,45.79Z"/><path class="cls-2" d="M346,45.74l0,.13C346.13,46,346.18,46,346,45.74Z"/><path class="cls-2" d="M343.08,48.43l.25.3-.2-.31Z"/><path class="cls-2" d="M346.25,47.5c.39.23.19-.26-.1-.87a.72.72,0,0,1-.16.57C346.15,47.46,346.26,47.62,346.25,47.5Z"/><path class="cls-2" d="M343.12,45.78c.34.3.65.55.95.77C343.6,46.05,342.83,45.3,343.12,45.78Z"/><path class="cls-2" d="M345.62,45.42a.47.47,0,0,1,0-.09C345.27,45,345.41,45.16,345.62,45.42Z"/><path class="cls-2" d="M345.62,45.42a10.21,10.21,0,0,0,.53,1.21,2.52,2.52,0,0,0-.14-.76C345.9,45.76,345.75,45.58,345.62,45.42Z"/><path class="cls-2" d="M350.41,60.05c-1.12-1.64-1.77-3.42-.2-1.93-.51-1.45-4.48-6.63-6.88-9.39a7.38,7.38,0,0,1,1.27,2.58c.74.79,2.24,1.51,3,3.18.12,1.17-.79-.3-1.62-1,1.62,1.88,1.48,3.35,3.68,6.24l-.33-1.33A9.81,9.81,0,0,0,350.41,60.05Z"/><path class="cls-2" d="M344.13,48.41v-.3a11.36,11.36,0,0,1-2.06-1.84,8.43,8.43,0,0,0,1.05,2.15l.88-.28Z"/><path class="cls-2" d="M344.79,47.63c1.12,1.85,1.3,2.85,2.85,4.61.34-.42-.73-1.69-1-2.63-.39.92-.49-1.13-1.69-1.78a1.19,1.19,0,0,1,.05-.73,5,5,0,0,1-.92-.55l.09.1h0l0,0c.18.2.29.32.16.22a.11.11,0,0,1,0,0c.17.25.31.47.44.68-.46-.22-.36-.43-.44-.68l-.17-.27,0,0,0,1.46C344.46,48.25,344.6,48.07,344.79,47.63Z"/><path class="cls-2" d="M354.45,54.11a3.35,3.35,0,0,1-.31-.4C354.25,54,354.33,54.12,354.45,54.11Z"/><path class="cls-2" d="M353.42,53.23c-.12-.28-.56-1-.27-.95.51.44.58.85,1,1.43a4.44,4.44,0,0,0-1.43-2.16l.12.27a15.24,15.24,0,0,1-2.71-2.66C351.3,50.7,352.16,51.79,353.42,53.23Z"/><path class="cls-2" d="M349.42,50.89l0,1.27,1.36,1.33-.66-.91C350.72,52.71,349.87,51.63,349.42,50.89Z"/><polygon class="cls-2" points="342.4 47.6 341.16 45.69 342.68 48.55 342.4 47.6"/><polygon class="cls-2" points="341.8 48.36 340.68 46.73 341.17 47.84 341.8 48.36"/><path class="cls-2" d="M316.51,99.13l.21.56A2.22,2.22,0,0,0,316.51,99.13Z"/><path class="cls-2" d="M317.69,98.29l-.6-.77C317.39,98,317.62,98.29,317.69,98.29Z"/><path class="cls-2" d="M323.61,62.05c-1.37-1.28-3.39-3.34-2-1.6l1.4,1.66C322.94,61.67,323.22,61.76,323.61,62.05Z"/><path class="cls-2" d="M319.57,81.76l.48.46-1.15-1.74Z"/><path class="cls-2" d="M325.07,88.85,323.89,88A6.7,6.7,0,0,0,325.07,88.85Z"/><path class="cls-2" d="M312.05,106.05l1.28,1.81C313.6,107.62,312.74,106.89,312.05,106.05Z"/><path class="cls-2" d="M334.56,54.55c-.71-.53-1.09-.69-1.3-.67C334.25,54.7,335.56,56.05,334.56,54.55Z"/><path class="cls-2" d="M302,81.26a4,4,0,0,0,.72,1.11A3.37,3.37,0,0,0,302,81.26Z"/><path class="cls-2" d="M332.65,54.34a5.15,5.15,0,0,0,.41.32c-.06-.4-.08-.75.2-.78C332.52,53.27,332,53,332.65,54.34Z"/><path class="cls-2" d="M289.84,124.27l-.22-.14C289.82,124.34,289.85,124.33,289.84,124.27Z"/><path class="cls-2" d="M268.34,114.8c0-.16.06-.26.13-.38C268.32,114.37,268.26,114.45,268.34,114.8Z"/><path class="cls-2" d="M338.2,49.75c.08-.23-.11-.21,0,0Z"/><path class="cls-2" d="M344,56.18a6.59,6.59,0,0,0,.55.9A8.74,8.74,0,0,1,344,56.18Z"/><path class="cls-2" d="M339.11,66.34h0C339.39,66.66,339.33,66.6,339.11,66.34Z"/><path class="cls-2" d="M339,50.38a3.32,3.32,0,0,0-.58-.38A2.63,2.63,0,0,0,339,50.38Z"/><path class="cls-2" d="M338.39,49.57a2.67,2.67,0,0,0,.26.07C338.46,49.33,338.31,49.16,338.39,49.57Z"/><path class="cls-2" d="M338.05,50c.07-.09.22-.07.39,0a.9.9,0,0,1-.24-.25A.8.8,0,0,1,338.05,50Z"/><path class="cls-2" d="M297,109.39l-.16-.13C297.33,110.06,297.29,109.89,297,109.39Z"/><path class="cls-2" d="M333.46,82.91a.93.93,0,0,1,0-.1l-.07,0Z"/><path class="cls-2" d="M333.93,84.6c-1.45-2.3-1.11-2.14-.59-1.83l-4-4.78Z"/><path class="cls-2" d="M314.28,101.87l1.64,1.16c1.66,2.8.63,2.23,2.76,4-4.4-5.17.93-1.71-3.45-6.89l1.17.88c-.12,0,.13.32,0,.32,2.58,2.07-2.86-4-1.63-3.79a3.75,3.75,0,0,1,1.72,1.57l-.63-1.67c.22,0,.95.91.73.92l.35-1,.13.15c-.59-.9-1.43-2.35-1.77-3,.81.59.38.63,1,1.24l-.67-1.6c1.29,1.21,2.07,2.79,1.64,2.83,4.75,4.86-.78-1.59,2.57.77l.19,1c2.73,2.74,2.11,1.44,4.08,2.92-.91-.88-4.74-3.92-5.41-5.57.45.29.77.34.12-.89,1.56,1.84,1.4,1.2,1.59.86l2,2.46a22.92,22.92,0,0,0-2.11-3.44c.55,0,2.21,1.8,3.63,3.33.86-.06-2.93-2.73-2.67-3.73,1.24.56.71-.71,0-2.63,1,.58,1.19,1.55,1.89,2.16L321.87,92c.11,0,.59.61.83.92-.4-1-2-2.47-2.2-3.46-2.14-2.8,4.05,3.34,2-.13.69.61,1.19,1.56,2,2.49a29.31,29.31,0,0,0-2.37-5.09L323.89,88a20.94,20.94,0,0,1-4.32-6.25c-.86-.8-1.6-1.51-2-1.83l-.48-1.82a15.38,15.38,0,0,1,1.78,2.37l-.38-.69a16.92,16.92,0,0,1,3,3.78l-1.46-1.35a54.83,54.83,0,0,0,3.51,4.83,2.56,2.56,0,0,1-.35-.83,9.37,9.37,0,0,0,.79,1.06c.23.24-.15-.35-.57-1.07l2.38,2.66L325,87.75l2.18,1.1c-1.71-3.23-4.55-7.74-4.57-9.61A64.66,64.66,0,0,0,327.11,85c-2.3-2.36.19,1.64-.68,1.49.45.08,1.33,1.27,1.59,1.72l-1.06-3c1.56,2,1.36,1.34,2.23,2-3.3-3.78-1.48-3.09-2.1-4.55,1.07,1.3,2.06,2.7,1.4,2.7,2.8,2.6-3.09-5.05-.65-2.9-.07.11-.29,0,.21.65-.7-1.35.6-.87,1.38.38l-.08.1c1,0,2-1.55-.5-5,.35.43,3.08,4.1,3.57,4.81l-7.64-12.2c2.15,3,7.9,9.5,8.63,11.55.48.29,1,.61.58-.66a33.23,33.23,0,0,1-3.58-4.33,51.08,51.08,0,0,0,4.26,3.84c-.65-.49-4-5.15-3.61-5.2.48.7,3.49,4.44,3.76,5L332,76.51a36,36,0,0,0,4,4.94c-.74-.82.61-.34.44-.92l-1.07-.82c1.24.12-4.12-6.81-3.21-7.13.62,1,4.14,5.83,4.93,6.11-1.59-2.41-7.68-11.57-8.37-13.83l1.12,1.21-.63-1.87c2.3,3.69,7,11.6,8.67,14.77,1.06.83,1.26,1.48,1.57,1,1.08,1.12,1.2,2,1.14,2.2l1.53.07c-2.08-2.64-1.33-3.23-3.05-5.43l1.09,3.55c-2.08-2.63-5.2-8-4.16-8.08,1,.93,3.49,4.86,4.18,5.74-.61-1-.7-2.23-.14-1.63l.8,1.65c1.13.73-2.08-4,.31-1.79.28.06,3.06,3.11,1.89,1.5-2.56-2.87-9.75-12.31-11.3-14.75a49.07,49.07,0,0,1,4.35,3.69c2.06,2.22,3.91,6,5.68,7.93a15.62,15.62,0,0,1-1.24-2.09c.63.51,1.64,2.33,1.74,1.73-2-2.77.9-.31-1.55-2.43-.24-1,.78.28,1.1-.14a32.61,32.61,0,0,1-4.32-7.34,20.58,20.58,0,0,0,1.59,1.94c.9-.29,2.21.68,2.9.21a11.05,11.05,0,0,1,2.2,2.47c-.26-.56-.85-1.56-.69-1.77,2.14,2.08-.19.7,2.2,3.33-1.14-1.61-1.07-2.59-1.51-3.8-1.89-2.41-1,0-.6,1.23-2.49-3.4-4.59-7.34-5-9.44,0-1.26,1.86,2,1.6,1.47,1.5-.18-3.41-6.63-.73-4.82,1.92,1.92,3.14,4.33,4.36,5.84.13,1.16-1.71-.86-2-.55l1.13.75c.38.83.47,1.6-.16,1.1,1.72,1.74,2.06-.94,4.19.29a8.31,8.31,0,0,0-1.42-2.57l0,.49c-1.51-1.59-1.26-2.79-2.18-3.37-.53-1.49-1.53-3.72-.31-3.08l1.87,2.43c-.53-.72-1.39-1.26-1-.4-.58-1.25,3.16,2.84,1.06-.59l-1.58-1.48c-.53-1.51-2-4.48-1-4-2-2.33.1.35-2.26-2.31,2.82,3.4-1.26.66,1.87,4.12-2.71-3.12-1.57-1-4-3.58.6.82,1.28,1.47.61,1.33.16.25.34.59.44.78l-.07,0,.09.08c.07.14.09.17,0,0a9,9,0,0,1,1.09,1.12c1.16,2,.53,2.38,1,3.5-.5-.24-.59-1-1.34-1.8l.75,1.67c-1.34-1.8-2.76-2.6-3-4l-.53.26c-1-.82-1.68-.95-1.36,0-.51-.23.9,2.42.06.85l.08,1.66-.34-.44c-.89.3.72,4.08-2.51,1.41.09.64.25,1.38-.53,1.16l-1.24-1.5c.09.77-2.09-.86-1,.86-3.45-3.94-2.19.22-3.29-.12l1.5,2c-.46.17-.39,1-.24,2.17l1.38,1.77c.71,1.77-2-.5-2.49.16-.47-.72-.17-.66.25-.33-3.82-3.47.65,4.14-2.27,1.73.33.78,0,.65-.42.29,0,0,0-.06,0-.12s-.06,0-.09,0c-.31-.25-.66-.54-1-.76a9.18,9.18,0,0,0,.93.8,1.56,1.56,0,0,0,0,1.1L323,62.11s0,0,0,.09c-.73-.56.55,1,1.75,2.37a11,11,0,0,0,.63,1.35c-2.52-3,.3,1.43-2.45-1.69,1.11,1.7,0,2,2.47,5.39-.35-.43-.57-.6-.48-.71-.52-.21-1-.43-.48.66l-2-2.34,2.07,3.61a13,13,0,0,1-3.39-4.09c1.56,3.39.29,1.52,1.94,4.79L321.88,70c-.16.22,1.16,2.56,0,1.37-2.8-2.58-2.59,1.39-6-.4,3.87,4.36-2.19-1.6.6,2a11.43,11.43,0,0,1-2.15-2.57c.25,1.54-2.27-1-.29,2.33-.94-1-1.15-1.68-1.72-2.26.14.27.56,1.08,0,.5a4.57,4.57,0,0,1-.92-1.52c-.47.68,2.14,4,4.61,7.16-1.5-1.21-1.48-.88-.05,1.33-.93-.93-2-1.84-1.89-2.51-.34,0-2.52-.42-.51,2.07-.58-.57-.45.06-.27.39-.6.24-.82.05-1.1.67l.46.3c2.27,3.12.16,1,.09,1.65l-.25-.32c-2.63-1.42.49,1.34-2.38-.4l1.57,1.81c3.23,4-2.69-1.72-1.92.21l1.06.9c.87,1.58-5.25-4.75-5.94-5a1.88,1.88,0,0,1-.5-1c-2.67-1.73,1.93,2.48,1.87,3.48-1.19-1.21-2.65-3.4-3.21-3.34-1.06-.9,2.51,5.06-.06,3a9.46,9.46,0,0,1,2.29,2.76c-.07.67-4.21-2.89-1.87.52a5.54,5.54,0,0,1-.73-.72c.4,1.06.22,2.14,1.51,4-5.67-6.06.88,4.55-4.11-1.23l-.61,1-.48-.6c-.89.1.12,1.65,1.13,3.2a4.91,4.91,0,0,1-1.1-1.21c-1.82-.45-1.69-.13.16,3.32l-1.71-1.79c.77,1.23-3.74-1.89-2.61,1a6.18,6.18,0,0,1-.66-.9c1,2.94-6.71-3.23-1,3.78l.91,2.18c1.21-.16,2.51,3,3.82,3.84.07.66-2.58-1.34-2.53-2l.36.29c-3-3.61-2-.4-4.17-2.79-1.32,1.5-4.52.88-6,2L288.24,99l-.61.29c-.71-.51-2.12-1.94-1.67-2.15-1.59-1.35.61,1.81,1.14,2.4-1.68-.47-2.65-3.37-2.91-3.24l-.09.46.35.25c.8,1.3,1.86,2.48,1.32,2.73-.75-.3-1.67-1.53-1.86-1.53-.18-.19-.3-.25-.23.06l-.82.34,2.22,1.88c.7,1.29-.67.41,1.84,2.54-3.86-3.3-3.46.77-4.77-.13,1.08,1.88.69,2.19.07,2.44.53.33,2.83,2.61,2.17,2.69-4.48-5-2.71-1.43-6.36-4.6,2.49,2-.56,1.62,3,4.47-.7-.08-1.76-1.79-3.1-2.69,1,2.6-2.86.42-3.19,2a16.74,16.74,0,0,1,2.41,2.58l-3.58-2.65c.12.49,3.39,3.79.91,1.95.57.48,1.42,1.2,1.49,1.52-4.86-1.24-1.24,6.17-8.79,2.36,1.46,1,1.41,1.24,1.26,1.47a24.11,24.11,0,0,1,2.42,2.35l-3.13-1.55c2.22,2.46-.67,1,1.51,3.29l-.16-.65c2.34,2.94,6.37,5.36,9.74,8.77-2.67-3.34,5.4,3.47,1.66-1.38.82.56,1,1.19,1.84,1.91-1.31-1.6-1.43-2.08-.45-1.76l.32.4c.57-1.29,2.39-.26,4.39-.34l-1.75-1.6c.45,0,1,.48,1.54.8-2.27-2.8-.77.48-3.33-2.56,3.69,3.12,1.65-1.52,5.7,2.18.36-.32-2-1.85-1.66-2.17l1.13,1L287,121.63c.45,0,1.86,1.21,2.75,2.1-.16-.06.09.4.1.54,1.52,1,.41-1.24.91-.93l-1-.33c0-1.92,2.48-1.66,1.32-4.7l-.85-.74c-.73-2.17,1.42.34,1.53-1.09l.16.22c-.62-1-.8-1.56-.49-1.67.7,1.13,2.12,1.48,2.86,2.78-.76-2.34-.82-1.63-3.17-5.12l1.39,1.23c-1-1.38-1.58-2-1.52-2.76.78,1.46,2.2,1.81,3.28,3.68,3.6,2.17-1.58-4.13,2.86-.16-3.14-4.1-2.67-1.41-3.21-2.41-1.33-1-2.32-3.09-1.7-3,.35-.17,4.94,4.36,5.54,3.68-.09,0,.17.33.09.37,1.14.73-.72-1.74,1-.47-1.94-2.43.52-.24-2.13-3.18l0,1.24c-.36-1.08-3.19-4.78-1.09-3.67a14.8,14.8,0,0,1,1.32,2.1c1,.7-.2-.87.79-.15,2.64,3-.16,1.32,1.53,3.88,1.31,1.06-1.26-2.75,1.48.56-3.45-4.25,1.11-.1-1.27-3.57l1.58,1.77c-.18-.34-.79-1.3-.62-1.38l1.85,2.48c-1.42-2.26,2.24,1,1.63-.32-.68.72-2.1-2-3.58-3-1.24-3.17,4.72,4.1,5,2.34.09.38-1.48-.58-2-1.59a8.08,8.08,0,0,1,2.34,1.44c.34-1-1.74-1.71-2.44-3,2.17,1.93-.46-1.17-.79-2.13l1.63,1.79c1.8.45-3.17-3.92-1.23-3.16l1.95,2.75-.21-1,1.76,2.1c-1-1.86-.5-1.58.4-1.36-1.23-1.18-2.88-3.3-2.59-3.66,1.19.85,1.41,1.82,1.66,1.13.9,1.22,2,2.74.35,1.27.5.61.9,1.23,1.4,1.82,1.35,1,.88-.28,1-.45a1,1,0,0,1-.56-.25l-1.52-3.12a6.69,6.69,0,0,1,1.49,1.8c0-.32-.67-1.23-.59-1.57,1.25,1.51,2.61,3,2.92,4l-.77-2.22a19.57,19.57,0,0,1,2.29,2.07c1.13.54-1.62-3.65-.12-3a2.89,2.89,0,0,1-.49-.93c.76-.07,2.75,1.38,1.53-1.13l2.62,2.37c-.09-1-3.33-3-3.49-4.59-.23-1.3,2.16,2.09,3,2.67-.91-1.55-2.83-4.66-.48-2.9C314.72,101.83,314.26,101.54,314.28,101.87Zm4.37-5.8c.22.48,1,1.85,0,.83C317,94.69,318,95.62,318.65,96.07Zm4.66-11.38c.42.68.05.48-.66-.12C322.62,84.34,322.79,84.31,323.31,84.69ZM337.6,52.6l.06.11C336.85,52.13,337.16,52.37,337.6,52.6Zm1.15.46a3.62,3.62,0,0,0-.56-.84c.32.53.22.65,0,.61C338.58,53.31,338.9,53.62,338.75,53.06ZM284.46,98.9l.52.38C285.24,100,284.88,99.47,284.46,98.9Z"/><path class="cls-2" d="M324.44,88c-.29-.29-.58-.64-.88-1A3.53,3.53,0,0,0,324.44,88Z"/><path class="cls-2" d="M311.81,105.72h0l.28.34Z"/><path class="cls-2" d="M342.74,75.52a4.89,4.89,0,0,1-.95-.85C342.14,75.15,342.48,75.51,342.74,75.52Z"/><path class="cls-2" d="M339.24,47.68v.76c.1-.21.47.17.77.42C339.69,48.41,339.15,47.79,339.24,47.68Z"/><path class="cls-2" d="M350.83,57.76c-.12-.28.09-.1,0-.38l-.65-.91C350,56.68,350.34,57.53,350.83,57.76Z"/><path class="cls-2" d="M344.2,54c1.2,1.64,1,.92,1,.45,0,0,0,0,0,0C343.63,52.1,343.91,53.05,344.2,54Z"/><path class="cls-2" d="M345.25,54.34c0-.13.07-.23.2-.2C344.82,53.19,345.22,54,345.25,54.34Z"/><path class="cls-2" d="M338.65,51.48c.42.34-1.44-2.16-.9-1.54C336.38,47.75,338.81,53,338.65,51.48Z"/><polygon class="cls-2" points="348.26 59.31 346.72 57.32 347.76 59.06 348.26 59.31"/><path class="cls-2" d="M345.31,59.14l.78.3a2.18,2.18,0,0,1-.39-.77C345.42,58.77,344.87,58.55,345.31,59.14Z"/><path class="cls-2" d="M345.7,58.67c.15-.05.24-.17.07-.56A.64.64,0,0,0,345.7,58.67Z"/><polygon class="cls-2" points="348.17 60.29 347.76 59.94 347.38 59.98 348.17 60.29"/><path class="cls-2" d="M341,61.7v.88c.47.72.89,1.07.84.68A4.34,4.34,0,0,0,341,61.7Z"/><path class="cls-2" d="M346.23,66.34a12,12,0,0,1-1.3-1.41l1.81,2.53Z"/><path class="cls-2" d="M345.47,67.8c.46.72.87,2.42,1.26,1.89C346.27,69,346.26,68.1,345.47,67.8Z"/><polygon class="cls-2" points="337.01 69.17 337.08 69.06 334.01 65 337.01 69.17"/><path class="cls-2" d="M339.08,82.9c1.21.61-1.81-2.57-.46-1.69-.62-1-1.1-.72-1.62-1.63C337.49,80.8,336.9,80.35,339.08,82.9Z"/><path class="cls-2" d="M337,79.58c-.08-.2-.18-.43-.33-.73A4,4,0,0,0,337,79.58Z"/><polygon class="cls-2" points="265.37 113.91 264.34 113.44 265.74 114.46 265.37 113.91"/><path class="cls-2" d="M267.54,117.09l-2.39-2.21,1.93,2.23C267,116.94,267,116.62,267.54,117.09Z"/><path class="cls-2" d="M323.67,100.4l-.48-.62c-.59-.6-.7-.6-.92-.58Z"/><polygon class="cls-2" points="318.21 101.85 318.32 101.85 316.29 99.73 318.21 101.85"/><path class="cls-2" d="M317.42,107.47c.21,0-.07-.65.15-.67C317.63,107.45,315,104.75,317.42,107.47Z"/><path class="cls-2" d="M384.39,138.6a16.64,16.64,0,0,0,2.18-.71A12.13,12.13,0,0,0,384.39,138.6Z"/><polygon class="cls-2" points="379.37 138.66 380.18 138.4 378.13 138.87 379.37 138.66"/><path class="cls-2" d="M378.88,137.17c-3.32,1.32.74.34-.37,1l-.75.31,2.75-.84C380,137.51,378,137.72,378.88,137.17Z"/><path class="cls-2" d="M385.9,133.87c-1.29.5-1.19.23-.34.32l.32-.15S385.83,134,385.9,133.87Z"/><path class="cls-2" d="M385.88,134c.14.12,1.07-.48,0,0Z"/><path class="cls-2" d="M384.89,133.61l1.24-.21a10.71,10.71,0,0,1,1.46-.67A7.47,7.47,0,0,0,384.89,133.61Z"/><path class="cls-2" d="M382.36,134.26l.53-.07C383.21,134.06,383.31,134,382.36,134.26Z"/><path class="cls-2" d="M384,134.05l-1.12.14c-.54.22-1.63.6.41,0C382.3,134.49,383.27,134.2,384,134.05Z"/><path class="cls-2" d="M383.54,134.36a6,6,0,0,1-2.35.86C381.79,135.45,384.14,134.58,383.54,134.36Z"/><path class="cls-2" d="M375.37,138.31l-.93.5,1.18-.26C375,138.68,376.42,137.93,375.37,138.31Z"/><path class="cls-2" d="M386.23,131.78c-.73.23-1.9.71-2.82,1l.88-.13A10.86,10.86,0,0,1,386.23,131.78Z"/><path class="cls-2" d="M383.41,132.81l-1.31.19C382,133.25,382.62,133.09,383.41,132.81Z"/><polygon class="cls-2" points="378.6 135.5 381.31 134.98 378.54 135.44 378.6 135.5"/><polygon class="cls-2" points="386.04 130.91 387.75 130.49 385.15 131.1 386.04 130.91"/><path class="cls-2" d="M385.56,130.46c1.41-.37,2.3-.9,3.18-1.08a13.65,13.65,0,0,0-2.63.43C386.75,129.74,386.64,129.92,385.56,130.46Z"/><path class="cls-2" d="M384.49,130.12c.35-.05,1-.17,1.62-.31A14.2,14.2,0,0,0,384.49,130.12Z"/><path class="cls-2" d="M382.33,132.51a16.28,16.28,0,0,0,2-.86l-2,.76Z"/><path class="cls-2" d="M382.27,132.43l.06,0c0-.11,0-.19.05-.23A2.07,2.07,0,0,1,382.27,132.43Z"/><path class="cls-2" d="M382.33,132.53v0C382.14,132.58,382.07,132.61,382.33,132.53Z"/><path class="cls-2" d="M380.23,134.29a13.83,13.83,0,0,0-4.12,1.23C377.53,135.15,378.46,134.66,380.23,134.29Z"/><path class="cls-2" d="M379.83,133.48l-.38.4a15.89,15.89,0,0,1,1.88-.61Z"/><polygon class="cls-2" points="379.15 133.58 379.83 133.48 379.97 133.34 379.15 133.58"/><path class="cls-2" d="M382.72,131.14c-.92.19-1,.1-1.21,0-.36.27-.53.48-.48.61C381.68,131.58,382.84,131.26,382.72,131.14Z"/><path class="cls-2" d="M382.32,131.83h-.12C382,131.91,382,131.94,382.32,131.83Z"/><path class="cls-2" d="M381.12,129.91l-.36.14.35-.11Z"/><path class="cls-2" d="M380.66,131.91c-.36.24.16.13.8,0-.22,0-.38-.05-.43-.13C380.74,131.85,380.55,131.91,380.66,131.91Z"/><path class="cls-2" d="M383.42,130.09c-.41.19-.75.36-1.06.53C383,130.36,384,129.93,383.42,130.09Z"/><path class="cls-2" d="M382.75,131.62h.09C383.27,131.43,383.06,131.51,382.75,131.62Z"/><path class="cls-2" d="M382.75,131.62c-.31,0-.83.17-1.29.28a3.67,3.67,0,0,0,.74-.06Z"/><path class="cls-2" d="M367.93,133.67c1.89-.58,3.72-.85,1.78,0a102.83,102.83,0,0,0,11.05-3.66,13.17,13.17,0,0,1-2.78.61,17.38,17.38,0,0,1-4,1.64c-1.07,0,.58-.47,1.53-1-2.31.88-3.55.68-7,1.84l1.31-.1A16.13,16.13,0,0,0,367.93,133.67Z"/><path class="cls-2" d="M380.71,130.56l.26,0a16.57,16.57,0,0,1,2.45-1.15,14,14,0,0,0-2.31.51l-.11.56Z"/><path class="cls-2" d="M381.11,131a40.35,40.35,0,0,0-5.19,1.5c.23.24,1.78-.36,2.72-.47-.66-.3,1.19-.24,2.24-.95a1.26,1.26,0,0,1,.63.07,9.32,9.32,0,0,1,.85-.54l-.12,0h0c-.25.11-.4.16-.26.09h0l-.78.23a1.13,1.13,0,0,1,.78-.23l.3-.1h0l-1.27-.09C380.72,130.77,380.81,130.87,381.11,131Z"/><path class="cls-2" d="M371.63,136.74a4.61,4.61,0,0,1,.47-.17C371.84,136.62,371.67,136.66,371.63,136.74Z"/><path class="cls-2" d="M372.8,136.13c.3-.06,1.12-.31.95-.12a10.64,10.64,0,0,1-1.65.56,7.62,7.62,0,0,0,2.47-.8l-.29.06a24.73,24.73,0,0,1,3.4-1.58C375.86,134.91,374.56,135.4,372.8,136.13Z"/><path class="cls-2" d="M376.42,133.71l-1.13-.06-1.71.78,1.07-.36C374.3,134.43,375.6,134,376.42,133.71Z"/><polygon class="cls-2" points="382.13 129.54 384.31 128.9 381.18 129.65 382.13 129.54"/><polygon class="cls-2" points="381.71 129.13 383.61 128.55 382.43 128.78 381.71 129.13"/><path class="cls-2" d="M350.55,105.06l-.57,0A3.51,3.51,0,0,0,350.55,105.06Z"/><path class="cls-2" d="M350.59,106l1-.16A3.64,3.64,0,0,0,350.59,106Z"/><path class="cls-2" d="M378,116.94c1.74-.63,4.48-1.51,2.32-1l-2.08.59C378.65,116.6,378.44,116.75,378,116.94Z"/><path class="cls-2" d="M363.35,111.15l-.64.19,2.06-.31Z"/><path class="cls-2" d="M354.54,112.91l1.32-.53A9.82,9.82,0,0,0,354.54,112.91Z"/><path class="cls-2" d="M347.43,100.35l-2.21.19C345.27,100.78,346.36,100.5,347.43,100.35Z"/><path class="cls-2" d="M379.41,124.27c.77-.38,1.08-.59,1.15-.72C379.41,124.07,377.66,124.73,379.41,124.27Z"/><path class="cls-2" d="M373.27,101.33a7.05,7.05,0,0,0-1.31.14A6.1,6.1,0,0,0,373.27,101.33Z"/><path class="cls-2" d="M380.43,123.15l-.46.21c.38,0,.69,0,.59.19C381.42,123.17,381.92,122.87,380.43,123.15Z"/><path class="cls-2" d="M347,81.53l.25-.06C346.94,81.49,346.93,81.51,347,81.53Z"/><path class="cls-2" d="M368.43,74.78c.14,0,.15.12.18.19S368.74,74.86,368.43,74.78Z"/><path class="cls-2" d="M382,126.86c.16.06.23,0,0,0Z"/><path class="cls-2" d="M374,129.9a8.93,8.93,0,0,0-1,.26C373.44,130,373.76,129.94,374,129.9Z"/><path class="cls-2" d="M367.14,125.75h0C366.74,125.89,366.82,125.86,367.14,125.75Z"/><path class="cls-2" d="M381.1,127.31a4.58,4.58,0,0,0,.58-.33A4.2,4.2,0,0,0,381.1,127.31Z"/><path class="cls-2" d="M382.08,127l-.18.16C382.25,127,382.47,127,382.08,127Z"/><path class="cls-2" d="M381.84,126.75c.05,0,0,.13-.16.23a1.93,1.93,0,0,1,.32-.12A.46.46,0,0,1,381.84,126.75Z"/><path class="cls-2" d="M353.76,90.78l.2,0C353.05,90.72,353.2,90.75,353.76,90.78Z"/><path class="cls-2" d="M355.41,119.45h.11l.07,0Z"/><path class="cls-2" d="M353.74,119.4c2.67-.45,2.37-.27,1.85,0l6.05-1.6Z"/><path class="cls-2" d="M349.55,102.94l-1.87.63c-3.23.18-2.19-.28-4.84.47,6.71-1.1.9,1.08,7.59,0l-1.37.45c.06-.07-.34,0-.28-.08-3.14,1,4.88-.56,4,.1a5.68,5.68,0,0,1-2.25.59l1.73.09c-.11.13-1.28.31-1.17.18l.64.49-.2,0c1.06-.1,2.71-.21,3.42-.25-.93.33-.72.06-1.55.25l1.68,0c-1.71.45-3.44.49-3.23.22-6.61,1.54,1.73,0-2,1.34l-.91-.15c-3.74.91-2.32.9-4.61,1.7,1.21-.32,5.81-1.83,7.54-1.79-.49.2-.7.38.68.31-2.37.45-1.75.53-1.57.74l-3.15.59a32.81,32.81,0,0,0,4-.38c-.26.34-2.68.88-4.71,1.35-.41.55,3.83-1.08,4.53-.66-1.13.61.21.63,2.17.69a17,17,0,0,1-2.8.62l2.54-.28a6.45,6.45,0,0,1-1.21.28c1,0,3.14-.62,4.05-.49,3.46-.62-4.92,1.66-.92,1.23-.87.28-1.93.35-3.13.63a38.45,38.45,0,0,0,5.51-.25l-2,.8a34.26,34.26,0,0,1,7.49-1.23l2.55-.77,1.78.09a27,27,0,0,1-2.91.56l.77-.08a27.57,27.57,0,0,1-4.72,1l1.89-.59c-1.92.3-4,.64-5.87,1.06a3.42,3.42,0,0,1,.88,0c-.53.08-1,.16-1.3.24s.38,0,1.19-.11l-3.46.86,1.39-.27-2.05,1.09c3.6-.32,8.84-1.08,10.43-.73-2.59.41-4.18.9-7.2,1.57,3.15-.9-1.48-.23-.91-.74a7.32,7.32,0,0,1-2.26.6h3.05a7.28,7.28,0,0,0-2.8,1c4.85-1.23,3.36-.25,4.92-.34-1.63.4-3.32.71-3,.3-3.59,1.2,5.84-.85,2.8.21-.06-.07.18-.17-.66,0,1.5-.15.45.56-1,.78l-.05-.07c-.46.66.33,1.6,4.48.68-.53.13-5,1.12-5.84,1.29l14.12-2.44c-3.57.78-11.95,3.15-14.05,3.2-.48.24-1,.54.28.5a50.41,50.41,0,0,1,5.44-1.42c-3.88,1.27-2.06.73-5.33,1.94.73-.31,6.32-1.54,6.2-1.3-.84.17-5.49,1.37-6.09,1.44l5.59-.86a56.19,56.19,0,0,0-6.15,1.63c1.06-.32,0,.45.59.45l1.21-.53c-.68.77,7.8-1.39,7.65-.78-1.14.23-7,1.61-7.58,2.07,2.83-.58,13.56-2.89,15.82-3l-1.57.51,1.9-.13c-4.24.9-13.23,2.56-16.76,3.08-1.2.53-1.86.54-1.64.82a4.39,4.39,0,0,1-2.42.34l-.77,1c3.24-.88,3.4-.29,6.11-1l-3.58.08c3.24-.87,9.34-2,8.91-1.3-1.26.47-5.81,1.44-6.89,1.73,1.13-.22,2.27-.07,1.49.19l-1.8.24c-1.14.62,4.43-.68,1.43.49-.18.18-4.08,1.49-2.16,1,3.65-1.2,15.1-4.32,17.91-5-.24.11-3.38,1.55-5.17,2.19-2.85,1-7,1.6-9.44,2.45a22.89,22.89,0,0,1,2.38-.48c-.73.33-2.76.7-2.29.86,3.3-.86-.12.63,2.82-.64,1,0-.6.47-.38.74a54.16,54.16,0,0,1,8.3-1.75c-.83.22-1.91.58-2.39.75-.16.61-1.56,1.31-1.44,1.81a18.56,18.56,0,0,1-3.11,1.1,6.5,6.5,0,0,1,1.85-.22c-2.74,1.11-.54-.22-3.87,1a16.73,16.73,0,0,1,4-.49c2.92-.92.42-.66-.84-.54a52.55,52.55,0,0,1,10.43-2.07c1.12.09-2.57.94-2,.83-.49,1,7.25-1.46,4.51,0-2.5,1-5.12,1.55-7,2.16-1.07,0,1.49-1,1.32-1.18l-1.14.63c-.89.16-1.6.13-.89-.21-2.25.89-.08,1.41-2,2.65a13.81,13.81,0,0,0,2.85-.66l-.42-.07c2-.8,3-.53,3.87-1.06,1.53-.2,3.91-.64,2.84.06l-2.91,1c.86-.27,1.68-.76.76-.58,1.34-.26-3.8,1.75.08.72l1.95-.87c1.55-.21,4.75-.89,3.92-.31,2.84-1-.36,0,3-1.23-4.15,1.49-.06-.81-4.39.86,3.86-1.43,1.55-.89,4.81-2.2-1,.31-1.82.67-1.42.28l-.86.2.06,0-.11,0c-.15,0-.18.05,0,0a15,15,0,0,1-1.43.58c-2.25.56-2.31.14-3.5.35a21.65,21.65,0,0,1,2.14-.67l-1.79.32c2.15-.67,3.46-1.47,4.82-1.5v-.34c1.16-.55,1.56-.94.61-.82.43-.29-2.49.33-.76,0l-1.48-.09.54-.17c.13-.55-3.87,0-.13-1.63-.6,0-1.31,0-.78-.43l1.85-.58c-.71,0,1.7-1.15-.27-.69,5-1.63.83-1.31,1.62-1.92l-2.45.65c.07-.29-.69-.34-1.76-.39l-2.16.6c-1.85.2,1.35-1.12,1-1.49.84-.19.65,0,.17.19,4.75-1.8-3.85-.16-.4-1.56-.82.09-.57-.07,0-.29h.12a0,0,0,0,0,0-.06l1.12-.45c-.52.18-.94.34-1.13.43-.07-.08-.38-.15-.95-.14l2.32-.65-.08,0c.83-.34-1.13.18-2.87.69-.4,0-.88.09-1.45.18,3.74-1.06-1.36,0,2.62-1.19-2,.4-1.65-.31-5.79.64.53-.14.78-.25.83-.18.43-.27.87-.54-.33-.39l2.95-.79-4.08.64a22.16,22.16,0,0,1,5.14-1.33c-3.63.36-1.42-.07-5,.35l1.93-.44c-.1-.13-2.74.24-1.17-.22,3.59-1.19.12-1.76,3.34-3.38-5.65,1.44,2.45-1-2,0a20.57,20.57,0,0,1,3.27-.76c-1.41-.13,2-1.11-1.79-.59,1.35-.34,2-.34,2.79-.55-.3,0-1.2.12-.41-.1a7.88,7.88,0,0,1,1.75-.25c-.32-.38-4.48.47-8.39,1.28,1.8-.62,1.52-.67-1.08-.29,1.26-.35,2.57-.77,3.09-.59.15-.2,1.66-1.34-1.47-.7.79-.21.19-.26-.18-.23.11-.39.38-.48,0-.76l-.49.2c-3.8.64-.9-.11-1.41-.3l.39-.07c2.6-1.19-1.36,0,1.63-1.27l-2.34.51c-5.08.94,2.87-1.16.86-1.14l-1.31.4c-1.78.13,6.77-1.9,7.37-2.21a3,3,0,0,1,1.06-.07c2.88-1.08-3.1.53-3.89.28,1.65-.39,4.25-.72,4.51-1,1.32-.38-5.56.27-2.43-.68a16.1,16.1,0,0,1-3.53.63c-.51-.2,4.72-1.63.63-1.14a7.94,7.94,0,0,1,1-.23,16.5,16.5,0,0,0-4.08-.12c8.12-1.62-4.2-.64,3.33-1.93l-.52-.58.77-.11c.43-.5-1.4-.34-3.23-.19a8.88,8.88,0,0,1,1.61-.29c1.42-.85,1.09-.85-2.75-.77l2.44-.44c-1.44.08,3.7-1.48.75-1.63a9,9,0,0,1,1.11-.1c-3-.25,6.56-2.59-2.4-1.54l-2.26-.13c-.62.69-3.89.47-5.34.92-.56-.16,2.61-1,3.11-.76l-.44.11c4.67-.56,1.55-1,4.72-1.39-.38-1.1,2-2.54,2.12-3.62l-3.61.58.16-.4c.83-.2,2.82-.48,2.7-.2,2.05-.39-1.77-.23-2.56-.14,1.41-.7,4.26-.31,4.32-.48l-.29-.18-.42.1c-1.5,0-3.08.18-2.94-.16.7-.29,2.23-.37,2.36-.47s.38-.07.09-.13l.25-.5-2.84.52c-1.44,0,.1-.46-3.13.13,5-.89,1.6-1.95,3.14-2.32-2.12-.07-2.11-.37-1.9-.75-.59.15-3.81.54-3.45.18,6.68-.56,2.84-.86,7.61-1.58-3.16.54-.87-.79-5.36,0,.52-.31,2.5-.25,4.05-.6-2.65-.36,1.56-1.49.62-2.15a29,29,0,0,1-3.52.26l4.35-.77c-.45-.11-5.07.28-2-.24a10.39,10.39,0,0,1-2.13.17c4.14-1.79-3.74-2.8,4.2-4.82-1.69.3-1.86.18-1.94,0-.4.13-2.17.13-3.35.23l3.26-.83c-3.31.08-.27-.66-3.43-.55l.58.17c-3.74-.06-8.25.85-13,1.09,4.26.06-6.22,1.22-.12,1.36-1,.18-1.55,0-2.65.14,2.05,0,2.49.13,1.59.48h-.51c.56.8-1.45,1.29-2.72,2.33l2.36-.24a6.12,6.12,0,0,1-1.62.46c3.6,0,.15-.58,4.12-.66-4.79.62,0,1.4-5.4,2,0,.31,2.72-.31,2.72,0l-1.47.2,1.91-.07a14,14,0,0,1-3.39.59c.14-.06-.36-.11-.47-.16-1.72.42.65.71.09.84L348,82c1.45.72-.41,1.94,2.68,2.47l1.11-.16c2.12.41-1.17.61-.15,1.2h-.27c1.12,0,1.7.15,1.59.34-1.32,0-2.5.59-4,.51,2.28.45,1.77.16,5.94.16l-1.83.3c1.68,0,2.56-.11,3.08.17-1.61-.1-2.79.52-4.91.44-4,1.16,4.18.6-1.67,1.59,5.13-.26,2.75-.94,3.87-.88,1.65-.33,3.84-.16,3.35.12-.08.23-6.47,1.13-6.31,1.69,0-.06-.36,0-.35-.08-1.27.37,1.81.22-.27.73,3.1-.22-.13.37,3.8-.07l-1-.41c1.06.18,5.69-.11,3.52.64a22.59,22.59,0,0,1-2.45,0c-1.14.28.8.18-.37.47-3.94.45-.93-.53-4-.48-1.64.36,2.92.26-1.36.62,5.45-.44-.61.65,3.57.53l-2.36.27c.38,0,1.51,0,1.46.12l-3.08.18c2.65,0-2.2.91-.74,1-.16-.63,2.82-.51,4.5-1,3.25.37-6.1,1.25-4.85,2-.34-.07,1.36-.64,2.47-.59a11.56,11.56,0,0,1-2.55.84c.57.52,2.41-.42,3.88-.36-2.83.58,1.21.12,2.16.25l-2.39.33c-1.44.87,5-.52,3.23.33l-3.34.21.9.19-2.73.32c2.06.06,1.56.23.84.68,1.67-.32,4.34-.59,4.45-.31-1.39.41-2.28.22-1.88.58-1.51.13-3.4.3-1.22-.2l-2.29.22c-1.6.45-.29.6-.25.74a1.12,1.12,0,0,1,.54-.24l3.39.11a10.28,10.28,0,0,1-2.33.29,11.88,11.88,0,0,1,1.62.15,28.08,28.08,0,0,1-4.89.44l2.24.25a28.25,28.25,0,0,1-3,.69c-1.08.5,3.89.21,2.45.87a4.55,4.55,0,0,1,1,0c-.38.47-2.7,1.21,0,1.25l-3.42.84c.84.24,4.31-1.08,5.71-.69,1.18.25-2.93.66-3.87,1,1.79-.07,5.41-.3,2.66.57C349.33,103.21,349.83,103,349.55,102.94Zm2.34,4.25c-.51,0-2.08.12-.7-.21C353.93,106.57,352.64,106.89,351.89,107.19Zm7.06,5.58c-.79.11-.43-.08.44-.38C359.6,112.43,359.54,112.54,359,112.77Zm20.82,13.5-.12,0C380.5,125.86,380.17,126,379.77,126.27Zm-.9.67a6.7,6.7,0,0,0,1-.28c-.59.15-.65.09-.52-.06C378.73,126.81,378.32,127,378.87,126.94Zm-9.14-39.32-.61.14C368.41,87.68,369,87.65,369.73,87.62Z"/><path class="cls-2" d="M355.56,112.71c.4-.11.84-.21,1.28-.31A5.55,5.55,0,0,0,355.56,112.71Z"/><path class="cls-2" d="M347.84,100.31s0,0,0,0l-.43,0Z"/><path class="cls-2" d="M357.55,126.75a8,8,0,0,1,1.15-.48A2.64,2.64,0,0,0,357.55,126.75Z"/><path class="cls-2" d="M383.37,127.62l-.67,0c.15.07-.34.27-.69.44A6.71,6.71,0,0,1,383.37,127.62Z"/><path class="cls-2" d="M369.78,134.14c.29-.06.05.06.35,0l1.06-.36A2.06,2.06,0,0,0,369.78,134.14Z"/><path class="cls-2" d="M375.79,130.22c-1.93.62-1.23.56-.82.61,0,0,0,0,0,0C377.69,130,376.74,130.11,375.79,130.22Z"/><path class="cls-2" d="M375.05,130.85c.11,0,.17.06.1.14C376.24,130.66,375.35,130.85,375.05,130.85Z"/><path class="cls-2" d="M380.3,127c-.48.23,2.49-.71,1.71-.42C384.51,125.91,378.87,127,380.3,127Z"/><polygon class="cls-2" points="369.45 132.34 371.82 131.54 369.87 132.04 369.45 132.34"/><path class="cls-2" d="M370.79,130.48l-.58.47a3.23,3.23,0,0,1,.84-.18C371.08,130.58,371.5,130.25,370.79,130.48Z"/><path class="cls-2" d="M371.05,130.77c0,.1.06.16.47.09C371.48,130.82,371.37,130.75,371.05,130.77Z"/><polygon class="cls-2" points="368.62 132.2 369.09 131.97 369.21 131.72 368.62 132.2"/><path class="cls-2" d="M370.4,127.46l-.78-.09c-.83.21-1.31.44-.95.45A7,7,0,0,0,370.4,127.46Z"/><path class="cls-2" d="M364.08,130.3c.48-.23,1-.39,1.79-.67l-3,.87Z"/><path class="cls-2" d="M363.13,129.63c-.84.21-2.5.25-2.2.58C361.76,130,362.53,130.1,363.13,129.63Z"/><polygon class="cls-2" points="365.63 124.04 365.69 124.11 370.6 122.76 365.63 124.04"/><path class="cls-2" d="M352.78,123.07c-1.09.67,3.07-.69,1.68,0,1.18-.21,1.13-.58,2.16-.75C355.33,122.43,356,122.14,352.78,123.07Z"/><path class="cls-2" d="M356.62,122.34a7.6,7.6,0,0,0,.78-.08C357.08,122.28,356.83,122.31,356.62,122.34Z"/><polygon class="cls-2" points="371.11 73.8 372.16 73.52 370.46 73.76 371.11 73.8"/><path class="cls-2" d="M367.31,73.58l3.24-.23-2.94,0C367.76,73.42,368,73.5,367.31,73.58Z"/><path class="cls-2" d="M345.6,109.08l.77-.12c.82-.2.87-.27,1-.41Z"/><polygon class="cls-2" points="347.37 105.31 347.32 105.38 350.19 104.76 347.37 105.31"/><path class="cls-2" d="M343.19,103.13c-.1.14.57.16.47.3C343.09,103.27,346.8,102.5,343.19,103.13Z"/><path class="cls-2" d="M456.4,2.33c.5.11.11-1.95.14-2.33C455.72.59,456.49,2.87,456.4,2.33Z"/><path class="cls-2" d="M450.32,8.77l-.2-.84c-.06.78-.1,1.55-.11,2.31C450.1,9.75,450.2,9.26,450.32,8.77Z"/><path class="cls-2" d="M444.84,11.68c1.25,1.31,1.58.92,1.84.22s.55-1.63,1.33-1.33l.53.63q-.45-1.38-.87-2.79a12.65,12.65,0,0,0-1.37,2.14C445.9,11.28,445.51,11.84,444.84,11.68Z"/><path class="cls-2" d="M437.34,7.69c1.08.92.13,1.44,1-.23a1.91,1.91,0,0,1-.35-.17A1.73,1.73,0,0,1,437.34,7.69Z"/><path class="cls-2" d="M438,7.29c.53-.56-1.13-.59,0,0Z"/><path class="cls-2" d="M436,10.13l-.15-1.56c-.7-.47-1.47,0-1.64-.66C433.88,9.11,434.62,9.53,436,10.13Z"/><path class="cls-2" d="M437.14,12.59l0-.69C436.81,11.71,436.63,11.71,437.14,12.59Z"/><path class="cls-2" d="M437.07,10.41l0,1.49c.5.32,1.3,1.16.06-.6C437.83,12.12,437.26,11.26,437.07,10.41Z"/><path class="cls-2" d="M437.85,10.43c.89.22,1.67.18,1.85,1.69a1.6,1.6,0,0,0-.18-2A1,1,0,0,0,437.85,10.43Z"/><path class="cls-2" d="M446.7,14.88l1.05.55-.27-1.26C447.62,14.79,446,14,446.7,14.88Z"/><path class="cls-2" d="M430.72,13c.55.53,1.74,1.08,2.52,1.66l-.26-1A3.65,3.65,0,0,1,430.72,13Z"/><path class="cls-2" d="M433.24,14.68l.41,1.54C434.28,15.7,433.91,15.18,433.24,14.68Z"/><path class="cls-2" d="M439.82,15.51c-.29-1-.56-2-.8-3,.18,1.1.38,2.18.63,3.23Z"/><path class="cls-2" d="M428.38,15.85l-1.09-1.48c.51.79,1,1.57,1.57,2.34Z"/><path class="cls-2" d="M427.27,17.93c-1-1.15-2.33-1-2.83-1.8-.16.68.58,1.84,1.25,2.85C425.45,18.21,425.9,17.83,427.27,17.93Z"/><path class="cls-2" d="M426.65,20.52a11.69,11.69,0,0,0-1-1.54A5.09,5.09,0,0,0,426.65,20.52Z"/><path class="cls-2" d="M432.4,17.19a4.18,4.18,0,0,0-2.15-.75l1.91,1Z"/><path class="cls-2" d="M432.22,17.48l-.06,0c-.26.27-.46.45-.54.52Z"/><path class="cls-2" d="M432.45,17.12s0,0-.05.07C432.58,17.29,432.65,17.32,432.45,17.12Z"/><path class="cls-2" d="M436.84,15.86c.5,1.19.85,2.78,2.84,3.25C438.83,17.88,437.65,17.63,436.84,15.86Z"/><path class="cls-2" d="M434.82,18.43l1-.4c-.44-.35-1.19-.73-1.48-1.31Z"/><path class="cls-2" d="M435.09,19.2c-.1-.26-.19-.51-.27-.77l-.35.15Z"/><path class="cls-2" d="M429.19,20.3a1.71,1.71,0,0,1,.25,1.72,2.66,2.66,0,0,0,1.39-.93C430.31,20.65,429.44,19.79,429.19,20.3Z"/><path class="cls-2" d="M430.77,19a.78.78,0,0,0,.05.14C431,19.23,431.07,19.23,430.77,19Z"/><path class="cls-2" d="M427.07,25.91l.37.13-.31-.2Z"/><path class="cls-2" d="M431.2,21.24c.56-.09.26-.57-.16-1.13a1.77,1.77,0,0,1-.21,1C431.06,21.28,431.22,21.4,431.2,21.24Z"/><path class="cls-2" d="M426.79,22.18a7.87,7.87,0,0,0,1.35.05C427.47,22,426.35,21.83,426.79,22.18Z"/><path class="cls-2" d="M430.26,18.94s0-.08,0-.11C429.77,18.68,430,18.79,430.26,18.94Z"/><path class="cls-2" d="M430.26,18.94a6.24,6.24,0,0,0,.78,1.17,2.5,2.5,0,0,0-.22-.94A5.58,5.58,0,0,1,430.26,18.94Z"/><path class="cls-2" d="M438.41,33.73c-1.71-1-2.89-2.67-.67-2.24-.93-1.36-6.77-4.27-10.3-5.45a4.54,4.54,0,0,1,2.05,2.13c1.07.27,3.08-.29,4.3,1.19.36,1.39-1,.38-2.19.31,2.35.84,2.51,2.88,5.81,4.41l-.7-1.36C437.21,33,437.85,33.68,438.41,33.73Z"/><path class="cls-2" d="M428.42,24.76l0-.43a7.5,7.5,0,0,1-2.93-.32,4.66,4.66,0,0,0,1.67,1.83l1.1-1.34Z"/><path class="cls-2" d="M429.22,23c1.67,1.39,2,2.55,4.28,3.35.39-.9-1.17-1.53-1.64-2.54-.41,1.67-.76-1.05-2.43-.69a1.81,1.81,0,0,1,0-1.07,5.44,5.44,0,0,1-1.3.21l.13,0h0l0,0c.27.08.42.15.24.13a.08.08,0,0,1,0,.06,7.35,7.35,0,0,1,.65.5c-.64.17-.52-.24-.65-.5l-.26-.19h0c0,.69.06,1.38.12,2.06C428.82,24.18,429,23.77,429.22,23Z"/><path class="cls-2" d="M442.66,22.76a1.84,1.84,0,0,1-.41-.28C442.39,22.72,442.51,22.86,442.66,22.76Z"/><path class="cls-2" d="M441.27,22.4c-.16-.27-.76-.89-.36-1,.7.17.79.66,1.34,1.11-.31-.53-.69-1.6-1.93-1.74l.15.28a10.42,10.42,0,0,1-3.76-1.29A50.74,50.74,0,0,0,441.27,22.4Z"/><path class="cls-2" d="M435.71,22.77l.12,1.69,1.91.51-.94-.61C437.58,24,436.36,23.34,435.71,22.77Z"/><path class="cls-2" d="M426.05,25.52l-1.88-1.29c.79.77,1.6,1.53,2.41,2.28Z"/><polygon class="cls-2" points="425.44 27.2 423.73 26.19 424.55 27.17 425.44 27.2"/><path class="cls-2" d="M418.36,140.7l.25,1.3C418.49,141.4,418.42,141,418.36,140.7Z"/><path class="cls-2" d="M418.48,139.7l-.47-2.11c.14.68.25,1.19.32,1.5A3.51,3.51,0,0,0,418.48,139.7Z"/><path class="cls-2" d="M408.88,63.64c-1.92-.14-4.82-.55-2.71.16l2.09.6C408,63.9,408.35,63.71,408.88,63.64Z"/><path class="cls-2" d="M413.93,94.44c.21.44.44.9.66,1.35L413,91.45C413.24,92.29,413.43,93,413.93,94.44Z"/><path class="cls-2" d="M422.32,115.55l-1.57-2.47A15.31,15.31,0,0,0,422.32,115.55Z"/><path class="cls-2" d="M417.92,151.91l.42,3.73C418.67,155,418.2,153.6,417.92,151.91Z"/><path class="cls-2" d="M418.71,42.47a2.49,2.49,0,0,0-1.67.46C418.4,43,420.28,43.37,418.71,42.47Z"/><path class="cls-2" d="M406.25,86c.44,2,.62,2.82.81,3.66C406.63,87.67,406.46,86.91,406.25,86Z"/><path class="cls-2" d="M416.49,44.13a5.22,5.22,0,0,0,.56,0c-.18-.45-.3-.89,0-1.2C416,42.9,415.32,43.09,416.49,44.13Z"/><path class="cls-2" d="M384.71,97.85a2.49,2.49,0,0,1,.08-.32C384.61,97.74,384.63,97.81,384.71,97.85Z"/><path class="cls-2" d="M393.06,69.42c.14,0,.2.09.27.17C393.42,69.44,393.37,69.37,393.06,69.42Z"/><path class="cls-2" d="M421.47,32.83c0-.37-.19-.16,0,0Z"/><path class="cls-2" d="M429.89,35.16a3.8,3.8,0,0,0,.88.6A4.63,4.63,0,0,1,429.89,35.16Z"/><path class="cls-2" d="M427.31,52.87l0,0C427.71,53,427.63,53,427.31,52.87Z"/><path class="cls-2" d="M422.58,32.81a2.48,2.48,0,0,0-.77.1A2.5,2.5,0,0,0,422.58,32.81Z"/><path class="cls-2" d="M421.63,32.42c.13-.06.22-.12.31-.17C421.64,32.05,421.42,32,421.63,32.42Z"/><path class="cls-2" d="M421.37,33.3c.05-.19.22-.3.44-.39a.56.56,0,0,1-.34-.08A3.09,3.09,0,0,1,421.37,33.3Z"/><path class="cls-2" d="M402.94,120.85v-.32C402.64,121.26,402.74,121.24,402.94,120.85Z"/><path class="cls-2" d="M426.36,82.63s-.06-.09-.07-.13l-.09,0Z"/><path class="cls-2" d="M427.22,85.52c-2.07-2.66-1.68-2.78-1-3q-2.79-1.71-5.53-3.55Q424,82.09,427.22,85.52Z"/><path class="cls-2" d="M418.71,144.56l.72,3.14c1.24,6,.75,4.06,1.82,8.73-1.26-5.9-1.32-6.43-1.39-6.94s-.15-1-1.54-7.53l.6,2.48c0-.06.14.72.1.65.7,2.9.2.5-.45-2.57s-1.43-6.76-1.24-6.21c.22.76.67,2.6,1,4.39l-.77-4c.05.1.6,2.6.54,2.48a19.54,19.54,0,0,1-.21-2l.09.43-1.59-8c.5,1.8.34,1.71.77,3.46l-.78-4.24a49.57,49.57,0,0,1,1.55,7.69c1.72,7,1.56,6.06,1.19,4.16s-.91-4.68.25-.81l.34,2.4a63.58,63.58,0,0,0,1.72,6.13,39.21,39.21,0,0,1,1.28,3.73c-.32-1.14-1.36-4.91-2.2-8-.9-3.36-1.77-6.84-2.18-9.06.3,1,.47,1.33-.21-2.17,1.34,5.51,1.14,3.76,1.21,2.94l1.84,7.41c-.33-2.63-1.31-6.37-2.08-10,.35.11,1.92,5.79,3.28,10.56.35.16-.34-2-1.1-4.55a35.45,35.45,0,0,1-1.6-6.66c.51,1,.58.69.46-.73s-.48-3.83-1-6.71c1,1.93,1.34,4.79,2.06,6.72l-1.59-6.71a23.55,23.55,0,0,1,.92,2.89c-.54-2.89-2.29-7.68-2.71-10.59-1.28-4.32-.25-1.67.84.74a8.89,8.89,0,0,0,1.37,2.5c.27.13.24-.71-.48-3.39.84,1.86,1.55,4.8,2.59,7.66-.73-4-1-5.45-1.42-7.16s-.89-3.66-2.27-8.44c.72,1.27,1.47,2.52,2.24,3.76a68.08,68.08,0,0,1-3.53-8.77c-.88-2.64-2.12-6.37-3.29-9.87l-.42-.88-.29-.58-.49-1-.71-1.4-.88-3.7A48.63,48.63,0,0,1,413,91.45l-.44-1.35a12.36,12.36,0,0,1,.67,1.25l.37.8.55,1.27c.79,1.88,1.63,4,2.44,6.26-.63-1.21-1.31-2.54-2-3.89.94,2.54,1.9,5.11,2.76,7.41.93,2.46,1.85,4.86,2.74,7-.16-.47-.3-.93-.41-1.37s-.22-.87-.28-1.22c.48,1.34.91,2.51,1.22,3.18s-.3-1.16-1-3.34l3.47,7.5-1.33-3.29a15.52,15.52,0,0,0,2.62,1.64c-1.56-4.92-3.58-10.33-5.36-15-.77-2-1.56-4.15-2.41-6.39a38.34,38.34,0,0,1-1.41-4.49c1.18,2.37,2.2,4.22,3.28,6s2.21,3.61,3.68,6.16c-1.56-2.13-1.26-.94-.6,1.15s1.53,4.85,1.07,5.11c.48-.25,1.91,2.73,2.38,4l-.61-2.27-.3-1.12c-.11-.37-.25-.8-.38-1.19l-1.48-4.61C424.66,105,424,103,425,103.48c-4.68-7.17-3.13-8-4.45-11.47a23.82,23.82,0,0,1,2,3.27,5,5,0,0,1,.66,2.88c.84.79.91.4.61-.45a34.2,34.2,0,0,0-1.64-3.52c-1.34-2.66-2.66-5-1.3-4,0,.46-.2.37.53,1.53a5.52,5.52,0,0,1-.53-1.65c0-.35.09-.56.26-.64.34-.17,1,.15,1.53,1.13l0,.38a8.46,8.46,0,0,0,.55-4.54,9,9,0,0,0-2.75-5.67c.47.37,4.24,4,4.94,4.82A86.17,86.17,0,0,0,414.07,73c1.52,1.18,4.19,2.88,6.74,4.57s4.85,3.38,5.48,4.94c.59-.17,1.32-.52.51-2.34-.57.1-4.87-2.21-5.05-2.8a10.53,10.53,0,0,0,3,.69c.49,0,.92,0,2.71,0-.43.08-1.88-.74-3.19-1.63s-2.47-1.81-2.28-2.08c.74.49,5.14,2.45,5.59,3a51.3,51.3,0,0,0-4.52-4.17c.79.8,4.36,2,6,2.06-.55-.09-.36-.55-.09-1,.21-.29.5-.62.3-.88l-1.42.08c1.32-1.11-6.9-4.16-6.07-5.54,1,.6,6.51,3,7.45,2.53-2.56-1.35-12.32-6.5-13.83-8.7l1.63.36-1.33-1.73c3.74,2.31,11.51,7.44,14.47,9.61,1.42-.05,1.86.56,2-.28,1.54.3,2,1.29,2,1.55l1.64-1.42c-3.15-1.18-2.58-2.66-5.19-3.66l2.44,3.3c-3.15-1.15-8.4-4.72-7.29-5.85,1.38.17,5.42,2.54,6.46,2.94-1-.61-1.51-2.08-.7-1.89L433,65.87c1.47-.22-3.6-2.92-.27-2.53.32-.22,4.35.82,2.54,0a130.23,130.23,0,0,1-17.16-7.13,30.15,30.15,0,0,1,6,.22c3,.71,6.21,3.65,8.77,4.27a9.59,9.59,0,0,1-2-1.39c.86,0,2.55,1.29,2.48.43-3.07-1.5.89-1.28-2.49-1.5-.58-1.07,1-.43,1.19-1.29-2.12-.65-6.5-3.81-7.07-4.92a14.37,14.37,0,0,0,2.37.86c.93-1.28,2.69-1.38,3.33-2.67.8.23,2,0,3.2.93-.46-.44-1.42-1.11-1.31-1.55,3,.5,0,1.09,3.47,2-1.77-.9-2-2.2-2.82-3.31-2.84-1.14-1.17,1.07-.31,2.17-3.82-1.8-7.34-4.71-8.42-6.93-.42-1.55,2.68.71,2.23.26,1.65-1.72-5.78-5-2.21-5.34,2.74.51,4.82,2.32,6.63,3,.48,1.33-2.19.61-2.39,1.26l1.5-.19c.67.68,1,1.56.14,1.54,2.44.49,2.09-3.23,4.86-3.8a5.09,5.09,0,0,0-2.35-1.82l.09.66c-2.17-.5-2.23-2.26-3.44-2.08-1.05-1.33-2.82-3.16-1.22-3.6l2.82,1.21c-.81-.39-1.94-.2-1.24.49-1-1,4.42.42,1.09-1.84l-2.24-.3c-1-1.38-3.44-3.79-2.11-4.23-2.89-1,.2.36-3.27-.65,4.19,1.5-1.37,2.22,3.21,3.46-4-1.23-2.11.31-5.68-.4.93.41,1.88.57,1.07,1.07a8.14,8.14,0,0,1,.73.55h-.09l.12,0c.12.09.15.11.05,0a5.79,5.79,0,0,1,1.55.32c1.91,1.38,1.3,2.46,2.19,3.37-.64.21-1-.68-2-.93l1.34,1.35c-2-.93-3.89-.54-4.59-2.1l-.53.84c-1.38,0-2.19.46-1.56,1.33-.64.21,1.72,2.16.32,1l.57,2-.51-.23c-.93,1.27,2,4.44-2.44,4.32.29.72.69,1.5-.26,2L415,45.49c.33.89-2.63,1-.9,2.14-5.06-1.5-2.41,2.56-3.75,3.27L412.62,52c-.47.69-.12,1.73.41,3.07l2.09.83c1.35,1.52-2.36,1.44-2.69,2.83-.76-.42-.41-.66.16-.69-2.66-.21-2.14,1-1.45,2.21s1.56,2.46-.44,2.49c.62.65.26.81-.36.85a.19.19,0,0,0-.08-.13.27.27,0,0,0-.08.14c-.43,0-.9,0-1.3.07a5.94,5.94,0,0,0,1.27,0,2.23,2.23,0,0,0,.42,1.42l-2.31-.67a.5.5,0,0,0,0,.12c-1,.1,1,.73,2.73,1.15a6.05,6.05,0,0,0,1.16,1c-1.88-.51-1.67-.12-1.5.26s.29.85-1.66.14c1.86.8,1.09,1.42,4.85,3.58-.5-.25-.76-.29-.75-.45-.53.08-1,.08-.08,1l-2.71-1.52c1.14.91,2.26,1.88,3.36,2.93a12.89,12.89,0,0,1-4.58-3A10.42,10.42,0,0,1,411,71.86a24.86,24.86,0,0,0,1.79,2.42l-1.59-1.46c0,.28,2,2.8.62,1.72-1.59-1.16-1.87-.63-2.17.07s-.55,1.61-1.91.18c2,3.25,1.56,2.67.95,1.91s-1.33-1.78.2,1a38.54,38.54,0,0,1-2.29-4.09c.4,1.1,0,.63-.19.47s-.17,0,1,2.88c-.91-1.85-1.29-2.89-1.83-4,.19.44.75,1.81.21.71s-.74-1.69-1.12-2.57c.1.62,2.78,6.87,5.3,12.76-1.28-2.29-1.14-1.81.43,2.57a27.84,27.84,0,0,1-1.93-4.94c-.08,0-.43-.34-.5-.07s.1,1.21,1.06,3.92c-.51-1.27-.2,0,0,.73-.19.36-.4-.11-.26,1.1l.32.76c1.12,3.64,1.23,4.22,1.09,4s-.52-1.12-.4-.38l-.23-.77c-.85-2-.67-1.24-.51-.53s.27,1.35-.68-1.26l1.38,4.81c1.48,5.3,1,4.15.34,2.16s-1.55-4.91-1-2.4l.78,2.67c.5,2.14-.5-1.3-1.67-5.6-1.05-3.94-2.14-8-2.69-10-.25-1-.41-1.71-.6-2.51-.86-3.21-.42-1.44.3,1.46s1.7,6.81,1.9,8c-1-3.85-2.45-10.08-2.62-10.59-.39-1.55.4,1.82,1.08,4.83s1.22,5.66.29,1.79c.75,3.21,1.5,6.31,2.09,9.09A35.43,35.43,0,0,1,407,89c-.43-1.75-.59-2.43.67,3.28-.3-1.3-.45-2-.6-2.67.67,3.2,2,9.61,2.63,12.42-2.52-11.43-1.86-8.21-1.06-4.47s1.65,7.83-.83-3.7l.42,2.25-.52-2.45c-.27-1,1,5,2.22,11.21-.35-1.49-.83-3.93-1.1-5.23-.51-2-.73-2.74-.51-1.29.53,3.18,1.06,6.33,2,12.1l-1.65-8.34c.45,2.57-.31-.35-1-2.73-.73-2-1.24-5-.63-.3-.11-.73-.28-1.8-.58-3.75.3,2.29.13,1.79-.18.3s-.77-4-1.1-5.73c-.66-3.55-.82-4.31,1.08,9.95.21,2.14.41,4.23.58,6.29.4,1.63.82,4.73,1.21,8s.75,6.73,1.21,9.4c0,.54-.5-2-.92-4.7s-.8-5.62-.75-6l.23,1.51a94.11,94.11,0,0,0-1.5-10,40.61,40.61,0,0,1-1-6.37,28.89,28.89,0,0,1-1.55-5.79c-.55-2.61-1-5.15-1.32-6l.61,9.65-.33-1.18c-.19-2.33-.43-7.44-.25-6.72-.18-2.75-.18-1.76-.16.12.06,2.54.11,5,.13,5.62a63.52,63.52,0,0,1-.35-6.9c0-2.1,0-3.76-.08-3.95l-.08.45.06,1.11c0,3.51.15,7.36-.11,6.41-.19-2.07-.19-5.57-.25-6,0-.62,0-.94-.08-.4l-.28-1.29.17,7c-.13,3-.36-1.09-.15,6.85-.18-6.15-.48-7.81-.8-8.52s-.69-.5-.67-2.25c-.47,3.84-.77,3.15-1,2.05,0,1.3-.54,7.7-.81,6.24a62.3,62.3,0,0,0,.67-9.1,31.69,31.69,0,0,1,.35-6.51c-.63,6-.79.18-1.8,8.5-.07-1.4.69-4.33,1-7.28-.59,1.75-.74.47-.75-1s.12-3.17-.29-3a47,47,0,0,1-1.57,4.86q.8-3.42,1.7-6.58c-.27.44-2.49,6.5-1.22,2.13a15.5,15.5,0,0,1-1,2.73c.22-2,.13-2.89-.15-3.47s-.74-.79-1.17-1.2a2.35,2.35,0,0,1-.74-2,7.56,7.56,0,0,1,1.9-4.11c-1.22,1.39-1.42,1.36-1.58,1.18a30.74,30.74,0,0,1-2.65,2.24,25.36,25.36,0,0,1,2.2-3c-1.41.87-1.6.62-1.75.38s-.29-.47-1.72.22l.67.07a20.33,20.33,0,0,0-5.24,3.29,37.71,37.71,0,0,1-5.64,4c2.06-.57,1,.72.25,2.06s-1.2,2.69,1.62,1.81c-.59.84-1.38.54-2.17,1.31,1.86-.71,2.41-.52,2.16.83l-.44.18c1.69,2.08.73,4.25,1.45,7.91l1.47-1.74a4.3,4.3,0,0,1-.54,2.06c2.73-1.72-.79-1.76,2.2-3.74a3.23,3.23,0,0,0-.36,4c.49,1.06.9,2.13-.58,4.37.52.94,1.49-2.24,2-1.32l-.73,1.32,1.24-1.17c.14.8-.74,2.49-1.44,3.46,0-.26-.44-.16-.6-.24-.51,2.12,1.67,1.81,1.5,2.5l0-1.6c1.11.73,1.83,2.22,2.66,3.55s1.76,2.48,3.07,2.32l.37-1.17c1.82-.1.29,2.52,1.76,3.6l-.14.18c.63-.65,1.11-.68,1.35,0-.74.76-.35,3.38-1.21,4.12.95-.07,1.21-.27,1.52-.77a31.22,31.22,0,0,1,1.61-2.8l-.41,2.13c.73-1.26,1-2.12,1.61-1.71-.85.87-.45,3.51-1.51,4.78,0,3.12.77,2.87,1.3,2.64s.91-.35.55,3.35c1.61-4.64-.35-4.83.19-5.49.18-2.19,1.27-3.36,1.45-2.23.26.7-.78,8.23.24,9.84-.09-.2-.17.23-.26,0,.16,2.12,1-.8,1.1,2.42.67-3.17.56,1.21,1.11-3.3l-.93-.41c.31-.17.72-1.41,1.08-2.14s.68-.93.91,1.06a7.26,7.26,0,0,1-.66,2.13c.1,1.79.5-.16.61,1.69-.2,2.33-.49,2.12-.82,1.67s-.7-1.13-1.17.15c.07,2.43,1.37-1.58.61,3,.5-2.87.7-2.27.95-1.4s.52,2,1,0l-.2,2.83c.14-.27.42-1.27.6-.87l-.53,3.18c.36-1.13.59,0,.83,1.38s.5,2.93.8,2.5c-1.17-1.86-.18-4-.58-7,1.33-1.79.61,9.16,2.28,10.45-.22.06-.84-3.22-.51-4.08a40.48,40.48,0,0,1,.95,5c1.05,1.14-.26-3.51.13-4.68.47,4.43.44-.72.77-1.25l.17,3.26c1.25,4.07-.11-6.34,1-2.1,0,1.31,0,2.61-.08,3.89.15-.09.3-.18.44-.28l.18,3.61c.39-1.79.59-.78,1.29,1.31-.37-2.63-.53-6.08-.1-5.37.55,2.63.18,3,.81,3.68.11,1.91.21,4.31-.45.59.09,1.07.07,1.89.15,2.94.64,3,1.06,2.21,1.32,2.63a8,8,0,0,1-.4-1.32c.17-1,.31-2,.42-3.1a14.2,14.2,0,0,1,.37,3.3c.17,0,.09-1.41.34-1.19.34,2.78.81,5.84.51,6.4a14.84,14.84,0,0,0,.6-1.46c.26,1.39,1.1,4.45,1.13,5.31.23.69.38.84.5.71a1,1,0,0,0,.14-.35.33.33,0,0,0,0-.17l0-.37.06-.77c.08-1,.14-2,.24-2.67s.25-1,.49-.68a14,14,0,0,1-.1-1.94c.29-.14.68.53.93.64s.37-.32,0-2.81l1.28,5.25A43.17,43.17,0,0,0,419,148a53.19,53.19,0,0,1-1-5.31c-.35-2.53,1.07,4.71,1.44,6.15l-1.07-5.56c-.29-1.53-.4-2.17.13.16A9.15,9.15,0,0,1,418.71,144.56Zm-.38-9.6c.26,1.31,1,5.07.25,2C417.16,130.67,417.86,133.44,418.33,135Zm.42-32.53c.73,1.95.28,1.55-.67,0C418,101.66,418.09,101.52,418.75,102.43ZM421.61,37l.09.07C420.62,37.14,421,37.13,421.61,37Zm1.44-.56a2.08,2.08,0,0,0-.88-.49c.51.34.44.58.16.77C422.93,36.91,423.38,37,423.05,36.43ZM401.66,86.81l.08,1.61C401.66,89.84,401.66,88.41,401.66,86.81Z"/><path class="cls-2" d="M421.36,113.09c-.41-.86-.84-1.88-1.27-2.91A14.48,14.48,0,0,0,421.36,113.09Z"/><path class="cls-2" d="M417.84,151.23s0,0,0,0c0,.26.08.48.11.69Z"/><path class="cls-2" d="M434.18,60.79a3.55,3.55,0,0,1-1.32-.11C433.4,60.93,433.89,61,434.18,60.79Z"/><path class="cls-2" d="M422.14,29.06l.2,1c.06-.39.59-.27,1-.27C422.85,29.54,422.06,29.3,422.14,29.06Z"/><path class="cls-2" d="M438.41,30.46c-.2-.24.09-.21-.12-.45l-1-.56C437.15,29.88,437.77,30.61,438.41,30.46Z"/><path class="cls-2" d="M429.59,32.11c1.83.89,1.43.16,1.34-.49a.09.09,0,0,1,0,.09C428.46,30.23,429,31.18,429.59,32.11Z"/><path class="cls-2" d="M430.93,31.48a.43.43,0,0,1,.19-.45C430.15,30.43,430.81,31.09,430.93,31.48Z"/><path class="cls-2" d="M422.48,34.55c.57,0-2.27-1.28-1.46-1C418.82,32.13,423.11,36.34,422.48,34.55Z"/><polygon class="cls-2" points="435.7 34.84 433.4 33.84 435.06 35.03 435.7 34.84"/><path class="cls-2" d="M432.26,37.57l1-.42a1.36,1.36,0,0,1-.67-.57C432.27,37,431.58,37.25,432.26,37.57Z"/><path class="cls-2" d="M432.57,36.58a.53.53,0,0,0-.08-.78A1,1,0,0,0,432.57,36.58Z"/><polygon class="cls-2" points="435.86 36.16 435.29 36.13 434.87 36.55 435.86 36.16"/><path class="cls-2" d="M428,45.13l.27,1.1c.74.45,1.31.47,1.15,0C429,45.81,428.83,45.37,428,45.13Z"/><path class="cls-2" d="M435.35,45.74a8.06,8.06,0,0,1-1.88-.49l2.78,1.38Z"/><path class="cls-2" d="M434.9,48.33c.74.46,1.68,2.21,2,1.13C436.15,49,435.89,47.92,434.9,48.33Z"/><polygon class="cls-2" points="425.84 58.57 425.89 58.35 421.22 56.34 425.84 58.57"/><path class="cls-2" d="M432.89,73.56c1.47-.47-2.86-1.33-1.14-1.61-1-.64-1.41.23-2.3-.35C430.44,72.6,429.66,72.63,432.89,73.56Z"/><path class="cls-2" d="M429.45,71.6a5.31,5.31,0,0,0-.62-.56A3.61,3.61,0,0,0,429.45,71.6Z"/><path class="cls-2" d="M394.87,66.87c.26-.25.54-.5.82-.74-.48.32-1,.65-1.43,1Z"/><path class="cls-2" d="M391.3,68.17l2.85-1.54c-.89.39-1.8.76-2.71,1.12C391.6,67.77,391.92,67.78,391.3,68.17Z"/><path class="cls-2" d="M422.33,148.66l-.43-1.83c-.52-1.87-.6-1.9-.77-2Z"/><polygon class="cls-2" points="419.75 147.41 419.78 147.49 418.49 141.78 419.75 147.41"/><path class="cls-2" d="M420.88,156c.09.12-.11-1,0-.89C421,156,419.59,150,420.88,156Z"/><path class="cls-2" d="M527,44.77c.62-.07-.37-1.92-.42-2.31C525.77,43.31,527.24,45.25,527,44.77Z"/><path class="cls-2" d="M521.71,53.25l-.39-.77c.1.8.2,1.58.33,2.36C521.66,54.32,521.69,53.79,521.71,53.25Z"/><path class="cls-2" d="M516.31,57.81c1.47,1.06,1.81.55,2-.23s.31-1.84,1.21-1.77l.69.49-1.41-2.57C517.84,55.11,517.73,57.82,516.31,57.81Z"/><path class="cls-2" d="M508.24,55c1.17.79.32,1.4.91-.32l-.36-.13A1.76,1.76,0,0,1,508.24,55Z"/><path class="cls-2" d="M508.79,54.54c.44-.6-1.17-.47,0,0Z"/><path class="cls-2" d="M507.13,57.46c-.1-.5-.21-1-.29-1.51-.75-.41-1.42,0-1.66-.57C505.05,56.52,505.78,56.93,507.13,57.46Z"/><path class="cls-2" d="M508.47,59.85l-.08-.69C508.09,59,507.91,59,508.47,59.85Z"/><path class="cls-2" d="M508.25,57.69l.14,1.47c.51.29,1.37,1.07,0-.6C509.13,59.33,508.51,58.5,508.25,57.69Z"/><path class="cls-2" d="M509,57.64c.92.15,1.72,0,2,1.52C511.88,57.56,509.88,56,509,57.64Z"/><path class="cls-2" d="M518.64,60.69l1.21.29-.41-1.26C519.64,60.34,517.83,59.92,518.64,60.69Z"/><path class="cls-2" d="M502.08,60.25c.53.55,1.71,1.13,2.47,1.73l-.21-1.06A3.59,3.59,0,0,1,502.08,60.25Z"/><path class="cls-2" d="M504.55,62l.32,1.61C505.57,63,505.21,62.51,504.55,62Z"/><path class="cls-2" d="M511.28,62.64l-.93-3c.24,1.09.49,2.19.76,3.27Z"/><polygon class="cls-2" points="499.43 63.11 498.49 61.52 499.8 64.06 499.43 63.11"/><path class="cls-2" d="M497.91,65.39c-.83-1.28-2.31-1.07-2.69-2-.29.76.27,2.07.78,3.24C495.9,65.72,496.45,65.28,497.91,65.39Z"/><path class="cls-2" d="M496.67,68.4a9.61,9.61,0,0,0-.67-1.79A4.55,4.55,0,0,0,496.67,68.4Z"/><path class="cls-2" d="M503.46,64.6a4.06,4.06,0,0,0-2.16-.82l1.87,1.1Z"/><path class="cls-2" d="M503.23,64.92l-.06,0c-.32.3-.55.49-.65.57Z"/><path class="cls-2" d="M503.53,64.53s0,0-.07.07C503.64,64.71,503.71,64.74,503.53,64.53Z"/><path class="cls-2" d="M508.19,63.17c.5,1.21.67,2.94,2.77,3.33C510.15,65.22,509,65,508.19,63.17Z"/><path class="cls-2" d="M505.86,65.94l1.05-.45c-.43-.36-1.17-.77-1.42-1.38Z"/><polygon class="cls-2" points="506.03 66.77 505.86 65.94 505.46 66.11 506.03 66.77"/><path class="cls-2" d="M499.48,68.07a2,2,0,0,1-.11,2A3.75,3.75,0,0,0,501.08,69C500.62,68.46,499.86,67.49,499.48,68.07Z"/><path class="cls-2" d="M501.46,66.61a.78.78,0,0,0,0,.16C501.66,66.84,501.74,66.84,501.46,66.61Z"/><path class="cls-2" d="M495.74,75.14l.39.12-.3-.22Z"/><path class="cls-2" d="M501.46,69.12c.62-.1.4-.65.06-1.29a2.3,2.3,0,0,1-.44,1.12C501.29,69.17,501.44,69.31,501.46,69.12Z"/><path class="cls-2" d="M496.41,70.41a8,8,0,0,0,1.47,0C497.19,70.2,496,70,496.41,70.41Z"/><path class="cls-2" d="M500.93,66.51a.61.61,0,0,1,0-.11C500.45,66.22,500.63,66.35,500.93,66.51Z"/><path class="cls-2" d="M500.93,66.51a5.33,5.33,0,0,0,.59,1.32,2.56,2.56,0,0,0,0-1.06A3,3,0,0,1,500.93,66.51Z"/><path class="cls-2" d="M506.46,83.87c-1.67-1.05-2.62-3.05-.29-2.69-.72-1.61-6.41-4.8-10-5.92a3.61,3.61,0,0,1,1.74,2.55c1.13.18,3.47-.71,4.46,1,.08,1.72-1.21.59-2.48.65a4.58,4.58,0,0,1,2.38,2.18,7.35,7.35,0,0,0,3.11,2.72c-.19-.53-.38-1.08-.54-1.62C505.3,83.06,505.86,83.86,506.46,83.87Z"/><path class="cls-2" d="M497.56,73.51l.07-.54c-.6.26-1.47.1-3.18-.12A3.68,3.68,0,0,0,495.83,75c.52-.62,1-1.26,1.58-1.84Z"/><path class="cls-2" d="M498.89,71.24c1.49,1.6,1.59,3,3.86,3.86.65-1.12-.9-1.81-1.16-3-.88,2-.57-1.24-2.5-.71a2.53,2.53,0,0,1,.28-1.3,6.65,6.65,0,0,1-1.49.32l.14,0h0l0,0c.27.09.42.16.23.15,0,0,0,.05,0,.07a6.46,6.46,0,0,1,.59.57c-.75.25-.51-.26-.59-.57-.08-.07-.15-.15-.24-.22h0c-.14.84-.27,1.67-.39,2.53C498.15,72.75,498.45,72.23,498.89,71.24Z"/><path class="cls-2" d="M513.71,70.37a2,2,0,0,1-.41-.29C513.41,70.35,513.51,70.5,513.71,70.37Z"/><path class="cls-2" d="M512.22,70.09c-.14-.31-.7-1-.23-1.16.75.14.77.69,1.31,1.15-.24-.59-.51-1.75-1.86-1.81l.13.3a8.64,8.64,0,0,1-3.89-1.25A33.15,33.15,0,0,0,512.22,70.09Z"/><path class="cls-2" d="M506,70.79l-.25,2,2,.53-.9-.69C507.8,72.15,506.62,71.43,506,70.79Z"/><path class="cls-2" d="M494.72,74.74,493,73.29c.68.9,1.38,1.82,2.09,2.71Z"/><polygon class="cls-2" points="493.58 77.14 491.92 76.05 492.6 77.28 493.58 77.14"/><path class="cls-2" d="M425.54,78.69l-.33-.74A1.88,1.88,0,0,0,425.54,78.69Z"/><path class="cls-2" d="M424.15,82.76l.91.35C424.59,82.78,424.23,82.59,424.15,82.76Z"/><path class="cls-2" d="M469.23,105.88c-1-1.65-2.25-4.31-1.69-2.15l.67,2.07C468.51,105.33,468.86,105.49,469.23,105.88Z"/><path class="cls-2" d="M439.8,112.46l-.38.57c.69-.34,1.32-.66,1.9-1C440.85,112.19,440.34,112.33,439.8,112.46Z"/><path class="cls-2" d="M432.38,117.53c.13-.62.26-1.22.4-1.81A4.4,4.4,0,0,0,432.38,117.53Z"/><path class="cls-2" d="M434.88,57.53c-.4-.67-.8-1.34-1.19-2C432.91,56.45,434.12,56.76,434.88,57.53Z"/><path class="cls-2" d="M486.87,96.83a3,3,0,0,0-1.46-.19C486.6,97.14,488.38,97.87,486.87,96.83Z"/><path class="cls-2" d="M446.94,87.28a2.85,2.85,0,0,0-1.16-.7A2,2,0,0,0,446.94,87.28Z"/><path class="cls-2" d="M485,97.24c.2.1.31.14.49.22-.15-.39-.3-.72,0-.82C484.5,96.28,484,96.09,485,97.24Z"/><path class="cls-2" d="M468.24,89.52c-.1,0-.18,0-.29-.11C468.1,89.66,468.18,89.63,468.24,89.52Z"/><path class="cls-2" d="M441.52,78.32a1.44,1.44,0,0,1,.55-.31C441.93,77.89,441.76,78,441.52,78.32Z"/><path class="cls-2" d="M488.15,87.11c0-.63-.2-.16,0,0Z"/><path class="cls-2" d="M497.15,87.28a2.72,2.72,0,0,0,.92.55A3.53,3.53,0,0,1,497.15,87.28Z"/><path class="cls-2" d="M492.24,109l0,0C492.59,109.28,492.52,109.23,492.24,109Z"/><path class="cls-2" d="M489.38,86.53a2.54,2.54,0,0,0-.86.55A3.52,3.52,0,0,0,489.38,86.53Z"/><path class="cls-2" d="M488.36,86.33a5.36,5.36,0,0,0,.37-.45C488.42,85.69,488.18,85.68,488.36,86.33Z"/><path class="cls-2" d="M488,88a1.79,1.79,0,0,1,.5-.87c-.18.07-.31.09-.37,0C488.13,87.29,488.09,87.56,488,88Z"/><path class="cls-2" d="M474.94,50.33a1.94,1.94,0,0,1,.07.22C475.75,49.78,475.48,49.87,474.94,50.33Z"/><path class="cls-2" d="M462,130s0-.09.05-.12l-.09-.06Z"/><path class="cls-2" d="M460.1,131.77c.71-2.74,1.13-2.45,1.82-1.93-.4-2.06-.79-4.12-1.14-6.19C460.62,126.36,460.41,129.07,460.1,131.77Z"/><path class="cls-2" d="M429,69.33c-.78.09-1.57.18-2.36.3-2.07-3-.46-3.6-3.52-3.7,2.93,1.72,2.44,3,2,4.3s-.86,2.66,2.21,4.1l-1.67.27c.16-.22-.19-.42,0-.63-3.71.41,4,3.11,2.34,4.76a1.77,1.77,0,0,1-2.45,0c.34.75.67,1.48,1,2.2-.28.45-1.37,0-1.09-.47-.09.92-.2,1.83-.24,2.76l-.19-.07A35.44,35.44,0,0,1,428,85.54c-1.09.43-.63-.49-1.49-.52.43.61.86,1.2,1.3,1.77-1.85.25-3.27-1.3-2.79-2.29-3.46-.08-3.12.39-2.47,1.07s1.64,1.59-.58,2.89c-.21-.55-.4-1.1-.6-1.66-4,.36-2.79,1.84-5.38,3.51.64-.19,2.26-1,3.9-1.4s3.27-.47,4,.49c-.56.4-.91,1,.39,2.07-2.4-.2-1.91.78-1.81,2l-3.19-.21c.88,1.39,2.51,1.3,3.94,2-.29,1.39-2.75,1.79-4.82,2.26-.17,1.28.79.77,1.89.34s2.35-.76,2.75.56a2.39,2.39,0,0,0,.12,2.68,10.8,10.8,0,0,0,2.66,2.48c-.78,1.54-2,.21-2.75.89.92.21,1.86.39,2.78.55,0,.29-.77.4-1.16.46,1.22.69,3.08-.74,4.34.38,1.75-.35.71.68-.11,2s-1.44,2.88.79,2.85c-.62.81-1.86.65-2.92,1.3A19.51,19.51,0,0,0,430,113a13.61,13.61,0,0,0,3.61.08c-.29.84-.58,1.72-.8,2.6a4.88,4.88,0,0,1,3.05-2.3,38.08,38.08,0,0,1,4-1c.69-1,1.34-1.85,1.62-2.28a17.57,17.57,0,0,0,2.29.12,7,7,0,0,1-2.39,1.75,7.91,7.91,0,0,0,.78-.27c-.51,1.23-2.05,2.27-3.75,3,.32-.6.69-1.21,1.07-1.79a25.35,25.35,0,0,0-5.23,3,1.87,1.87,0,0,1,1.13.06,3.19,3.19,0,0,0-1.14.68c-.22.27.49,0,1.36-.22-.8.89-1.6,1.79-2.37,2.71l1.16-.82a27.67,27.67,0,0,0,.64,3.91A35,35,0,0,0,441.4,120c1-.45,2-.86,2.9-1.2a8.49,8.49,0,0,1,2.49-.56c-1.84,2-2.16,3.69-3.62,6.42.32-1.66-.39-1.68-1.42-1.54s-2.39.42-3-.43c.58.87-.44,1.94-1,2.19a30.68,30.68,0,0,0,4.58-.54c-1.33,2.17-.28,2,.12,3.39.67-2,1.48-2.65,2.25-2.8a14,14,0,0,1,2.42.09,1.93,1.93,0,0,0,.86-.27c-.31,1.14-.81,2.24-1.65,2.45a1.38,1.38,0,0,1-1.16-.31c.09,1,.43,1.3.86,1.16.69-.25,1.56-1.5,2.28-2.37s1.3-1.39,1.62,0c-.38,0-.5-.35-.87.43a1.38,1.38,0,0,1,1.88-.1,1.41,1.41,0,0,1,.44,1.8,2.71,2.71,0,0,1-.4,0,7.43,7.43,0,0,0,4.88.26,4,4,0,0,0,2.94-3.92c.05.55-.11,5.14-.26,6a87.4,87.4,0,0,0,2.72-14.53c.06,1.83.6,4.88,1,7.75s.58,5.55-.29,6.67c.59.47,1.39,1,2.36-.43-.45-.47-1.55-5.13-1.12-5.52,1.83,3.86,1.16,2,3.32,5.22-.65-.69-1-6.44-.2-6.39,0,.87,1,5.56.84,6.2q.54-3,1-5.89c-.28,1.09.8,4.7,1.56,6.17-.43-1,1.76-.25,2.19-.91l-1.12-1.1c2.45.35.46-8.2,2.55-8.4.06,1.18,1.11,7.1,2.44,7.47-.12-1.42-.38-4.71-.67-8.4-.24-3.45-.43-6.85,0-8.14l.82,1.46c.21-.73.4-1.46.59-2.19a72.52,72.52,0,0,1,.84,9,57.82,57.82,0,0,1-.26,8.64c1.21,1,.77,1.82,2,1.27a1.86,1.86,0,0,1-.44,2.67c1.14,0,2.3,0,3.46,0-1.17-3.15,1.31-4,.22-6.61-.67,1.46-1.4,3-2.17,4.41a17,17,0,0,1-.67-6c.13-2.06.59-3.68,1.65-3.76,1,1,1.74,5.74,2.15,6.78-.11-1.19,1.2-2.85,1.7-2.17l-.23,2c.84.34.92-.88,1.08-1.9s.42-1.83,1.81-.7c.55,0,3.39,3.17,2.59,1.34-2.59-3-7.76-13.66-8.68-16.43l2,1.41a27.1,27.1,0,0,1,2.93,2.25,12.46,12.46,0,0,1,2.35,4.46c.6,1.67,1.1,3.33,2.06,4.26a6.89,6.89,0,0,1-.58-2.46c.87.39,1.24,2.57,2.1,1.57-1.61-3,2.26-1.13-1-2.74.43-1.45,1.42-.11,2.49-1a12.9,12.9,0,0,1-2.35-4.11,13.16,13.16,0,0,1-1.16-3.9,9.91,9.91,0,0,0,1.83,1.74A9.76,9.76,0,0,1,494.9,108a5.14,5.14,0,0,0,2.38-1.46c.75.37,2.19.08,3.1,1.33-.28-.64-1.05-1.55-.72-2.15,3.25.49-.54,1.57,3,2.7a3.51,3.51,0,0,1-1.24-2.2,16.53,16.53,0,0,0-.58-2.4c-1.42-.6-1.8-.23-1.78.5a14.77,14.77,0,0,0,.58,2.61,25.1,25.1,0,0,1-4.46-4.32,22.47,22.47,0,0,1-2.82-4c-.5-1.49,2.68.68,2.21.24.87-1-.71-2.11-2.06-3s-2.48-1.52-.73-2.18c2.83-.21,5.19,1.29,7.12,1.58.66,1.51-2.15,1.42-2.28,2.18.5-.18,1-.37,1.51-.59.75.62,1.13,1.68.23,1.85,1.28,0,1.81-1.18,2.26-2.57s.9-3,2.28-3.74c-.77-.61-1.45-1.56-2.59-1.56l.16.82a2.83,2.83,0,0,1-2.26-1c-.48-.49-.83-.94-1.47-.58-1.14-1.46-3-3.62-1.17-4.73l2.94.9c-.83-.33-2.07.27-1.37,1-.51-.55.69-.76,1.56-1s1.46-.62-.21-1.8c-.79,0-1.59.08-2.4.14-.95-1.66-3.17-4.55-1.55-5.47-3-.82.14.44-3.53-.17,2.19.57,1.67,1.45,1.24,2.3s-.77,1.67,1.67,1.9c-2.11-.33-2.73,0-3.27.38a4.8,4.8,0,0,1-3,1.06c1,.29,2,.1,1.07,1.31a6.12,6.12,0,0,1,.75.58l-.1.07.13,0c.13.11.16.12.05,0a3.59,3.59,0,0,1,1.69-.19c1.95,1.41,1.28,3.34,2.31,4.23-.64.54-1.05-.57-2.19-.49.5.46,1,.91,1.51,1.34-2.2-.46-4,.76-4.94-1l-.42,1.26c-1.4.42-2.08,1-1.28,1.68-.57.21,2.11,1.58.52.77.33.49.68.91,1,1.37l-.52-.22c-.16.17-.07.45.09.8a6.3,6.3,0,0,1,.36,1.06,1.12,1.12,0,0,1,0,.48.56.56,0,0,1-.34.29,2.76,2.76,0,0,1-1.86-.36c.21.58.5,1.35-.39,1.35l-1.45-1.3c.08.38-.49.25-.89.21s-.74,0-.18.84A7.23,7.23,0,0,0,480.67,97a.57.57,0,0,0-.8.25,2,2,0,0,0-.21.47c-.09.17-.17.34-.26.49-.17.3-.38.52-.68.44l1.21,2.23c-.72.19-.92,1.17-1.41,2.48l1,2c0,1-.72.92-1.56.61s-1.76-.79-2.41-.45c-.2-.83.22-.74.63-.35-1.68-2.08-2.15-.94-2.68.38s-1.07,2.81-2.36,1.23c-.18.9-.55.71-1,.24,0,0,.06-.07.07-.14a.24.24,0,0,0-.16,0c-.27-.33-.57-.73-.85-1a5.66,5.66,0,0,0,.76,1.06,2.41,2.41,0,0,0-1,1.16l-.74-2.3s-.07,0-.09.09c-.64-.76-.11,1.2.54,2.91a7,7,0,0,0-.32,1.56c-1.2-3.72-1,1.55-2.36-2.4.06,2.05-2.15,2-1.7,6.18-.11-.54-.3-.78,0-.86-.64-.38-1.24-.78-1.55.48l-.65-3c-.18,1.4-.4,2.82-.64,4.23a6.92,6.92,0,0,1-.86-5.25,6.92,6.92,0,0,1-1.16,2.6,8.53,8.53,0,0,0-1.12,2.53v-2c-.43.08-1.24,2.74-1.5,1.09a2.65,2.65,0,0,0-2-2.18,5.25,5.25,0,0,1-2.5-1.1,2.56,2.56,0,0,1-.58-1.91c-1.17,2.68-1.08,2-.94,1.15s.46-1.84-.79,0a10.32,10.32,0,0,1,1.75-2.86c-.69.4-.61-.3-.67-.6s-.23-.44-1.77.76c.88-1.07,1.51-1.37,2-2-.24.19-1,.7-.48,0a5.58,5.58,0,0,1,1.36-1.11c-.29-.15-1.23.5-2.5,1.48s-2.83,2.3-4.35,3.59c1-1.76.64-1.71-1.75-.57.88-1,1.8-2,2.62-1.74a5.75,5.75,0,0,0-.31-1.53c-.28-.49-.83-.8-2.26,0,.64-.52-.1-.66-.47-.62-.3-1-.05-1.21-.71-2l-.38.45c-1.88.51-2.18.35-2.07,0s.59-.88.23-1.23l.38-.09c1.09-1.36.71-1.42.39-1.58s-.61-.34.79-1.51l-2.35.49c-2.56.34-1.88-.32-.81-1s2.59-1.5,1.58-2l-1.35.5c-.9-.29.85-.88,2.89-1.3s4.43-.75,4.75-1c.45-.08.72.2,1,.35,1.54-.55.76-.6-.5-.69s-3-.11-3.3-.7c1.7,0,4.28.55,4.64,0,.69-.08-.61-.66-1.67-1.41s-1.79-1.66-.09-1.8c-1.32-.08-2.65-.08-3.49-.85-.14-.48,1.23-.78,2.11-1.1s1.36-.72-.49-1.73a3.65,3.65,0,0,1,1,.16c-.81-1-.93-2.64-2.82-3.9,4,1.24,3.42-.07,2.88-1.48s-1.11-2.83,2.27-1c.21-.7.44-1.4.7-2.1l.64.44c1.13-.93-.17-2.29-1.44-3.71.62,0,1.09.59,1.41.83,2.42-.86,2.14-1,.2-4.73l2,1.41c-.42-.62.79-.56,1.91-.62s2.15-.22,1.8-1.83a4.62,4.62,0,0,1,.6.94c-.16-.83.28-1.11.87-1.09a7.59,7.59,0,0,1,1.92.51c1.16.37,1.7.35,0-3.88.05-.83.13-1.7.27-2.57-.94,0-1.32-.86-1.56-1.94s-.33-2.32-1.05-2.82c.29-.44,1.1,0,1.67.64s.94,1.49.59,1.87l-.31-.36c.72,2.24,1.4,2.43,2,2.44s1.23-.1,1.65,1.45a6.77,6.77,0,0,1,4.72.35c1.51.57,2.79,1.37,4,1.68.12-1.22.22-2.45.29-3.66.35.12.68.28,1,.41.09.89-.3,2.86-.9,2.59,0,1,.29.66.71-.06a13.85,13.85,0,0,0,1-2.14,2.65,2.65,0,0,1-.43,2.68c-.47.8-.93,1.41-.78,1.5l.54-.14v-.44c.81-1.34,1.34-2.8,2.1-2.36.17.44-.14.94-.3,1.4l-.23.59.14-.35s.1-.27.58-1.25a18.33,18.33,0,0,1,1.26-2.21A10,10,0,0,1,477.11,62a8.44,8.44,0,0,0-1,1.23,8.5,8.5,0,0,1,1.43-1.61c.24-.18.29-.25-.23.2l.34-.29a4.28,4.28,0,0,1,.38-.26,1.27,1.27,0,0,1,.37-.17c.15,0-.54.29-3.17-1.73-.55-.4-1.95-1.63-1.57-1.27a1.74,1.74,0,0,1-.12.18l-.3.34-.36.36c-.46.45-.87.72-1.28.57.65,2.3-.18,3-1.34,3.78.66.21,3,2.43,1.89,2.95-4.25-5.19-3.56-.66-7.48-3.61,2.76,1.82-1.87,2.73,2.09,5.27-1.08.24-1.7-1.84-3.28-2.55,0,1.68-1.2,2.21-2.59,2.5a19.7,19.7,0,0,0-2.08.49,2.87,2.87,0,0,0-1.63,1.08c.49.73,1.66,1.53,2,2.93q-1.87-1.32-3.71-2.73c-.15.63,2.53,4.42,0,2.45.53.54,1.33,1.34,1.19,1.78a6.86,6.86,0,0,0-2.22.15,7.29,7.29,0,0,0-1.78.76,11,11,0,0,0-1.55,1.11l-1.53,1.15a6.93,6.93,0,0,1-1.62.93,4.38,4.38,0,0,1-1.83.38,5.09,5.09,0,0,1-2.05-.52,8.24,8.24,0,0,1-2.22-1.8c1,1.49.67,1.75.24,1.94.39.32.52,2.11.87,3.25a30.05,30.05,0,0,1-2.6-2.83c.13,1.64-.38,1.86-.87,1.92s-1,.16-.9,1.75l.57-.64a14.3,14.3,0,0,0,1.07,6.07,34.24,34.24,0,0,1,2.06,6.72c.31-2.22,1.39-.82,2.69.29s2.76,1.82,3-1.38c.76.8,0,1.59.6,2.59a3.28,3.28,0,0,1,.43-2.09c.31-.37.79-.41,1.54-.19l0,.53a7.91,7.91,0,0,1,2.26-.78,10.09,10.09,0,0,1,2.14-.16,24.91,24.91,0,0,0,5.24-.19l-1.39-2c.9-.11,1.4.43,2,.76-.46-1.81-1-1.56-1.56-1.35s-1.19.35-1.73-1.59c1.63,1.89,2.92,1.14,4.21.52s2.49-1.24,4.33.83c1.12-.68-1.82-2.07-.74-2.75l1.11,1-.82-1.76c.84-.2,2.26,1.07,3,2.07-.25,0-.28.62-.4.84,1,.4,1.52-.18,1.91-.82s.58-1.36.9-1.24h-1.52c2-3.15,6.37-4.29,6.77-8.66l-.92-.68c.39-3.12,2.27-.35,3.52-2.82l.11.26c-.37-1.17-.24-2,.35-2.43.42,1.4,2.63,1,3,2.66.32-3.36-.27-2.14-1.95-6.28L482,70.58c-.76-1.6-1.34-2.27-.77-3.48.36,1.86,2.54,1.47,3.17,3.79,2.1.77,3.32-1.65,3.87-4.46.3-1.43.43-3,.68-4.42a19.94,19.94,0,0,1,1.6-4.95,2.67,2.67,0,0,0-1.95-.59,1,1,0,0,0-.79.75,16.05,16.05,0,0,0-.11,3.32,11.71,11.71,0,0,1-.49,3.31c-.25.71-.43.92-.49.32a1,1,0,0,1-1.29-.25,5,5,0,0,1-.78-1.54c-.41-1.27-1-2.56-1.19-3.51a3.23,3.23,0,0,1,.19-1.79,14.83,14.83,0,0,0,.5-2.77,7.14,7.14,0,0,0-.49-3.11,3.81,3.81,0,0,0-2.08-2.14c.38.18.55-.17.95,0-1.22-2-2.94.76-3.59-1.73-.81,1.38-1.19,1.24-1.55,1.2s-.68.06-1.26,2c.85-.08,1.73-.19,2.6-.19-.83.24-1.88,1.44-2.83,2.23s-1.81,1.22-2.62-.09a6.25,6.25,0,0,1,1.69-2.14c-.42-1.27-1.37.49-1.83-.78.39-1.95,1.2-2,2.16-1.93s2,.4,3.23-.84c-.15-.91-1.11-.43-1.75-.19s-1,.24-.14-1.77c-1.2,2.54-1.8,2.24-2.55,1.76s-1.63-1.07-2.77.9l.36-2.35c-.36.35-1.08,1.42-1.63,1.32.4-1,.82-2,1.27-3-.94,1.26-1.65.61-2.43-.12s-1.61-1.62-2.41-.88c1.71-.07,1.89.68,1.82,1.61s-.34,2.1.29,3c-1.87,1.56-2.36.07-3.11-1.7s-1.66-3.8-4-2.92c.62-.42,2.54,1.13,1.69,2.33a8.05,8.05,0,0,1-1.52-.86,5.28,5.28,0,0,1-1.41-1.38c-1.52.53-1.25,1.1-.78,1.76s1.15,1.39.69,2.22c-1.57-2.65-1.18,1.47-2.06,2.63l-.64-2.32c-1.81-.29-1.66,1-1.43,2.2s.48,2.33-1.12,1.95c0-1.18,0-2.38,0-3.57-.4.44-.78.9-1.16,1.35L453.08,46c-.93,2.52-1.52,2.26-3.44,2.3,1.1,1.34,1.74,4,.61,4.72-1.53-.77-.67-2.3-2.24-.94-.42-1.52-.86-3.48,1-2-.29-.73-.3-1.56-.56-2.29a1.83,1.83,0,0,0-2.16.27c-.54.47-.92,1.09-1.26,1.32a1.32,1.32,0,0,1,1.05,0,34.14,34.14,0,0,0-.7,4.52,2.25,2.25,0,0,1-1.17-2.06c-.37.6-.06,1.73-.61,2.45-1-1.66-2.41-3.2-1.8-4.81a31.92,31.92,0,0,0-1.07,3.66c-.71-.52-2.73-.68-2.93-1.48-1,.18-1.16,1.63-1.26,3s-.17,2.79-1.41,3.1a1.72,1.72,0,0,1,.31,1.24c-.76.59-1.88.87-2.69,1.43S431.47,62,432,63.59c-1.2-.31-2.4-.61-3.62-.88-.12.94,1.05,1.16,2.18,1.56s2.24,1,2.11,2.44c0,2.16-2.93-.95-4.12-.87A16.4,16.4,0,0,1,430.22,69c.32,1,.09,1.82-1.58,2C428.31,70.09,429,69.94,429,69.33Zm-5.11,20c-.46-.47-1.87-1.56-.41-1.64C426.15,88.64,424.79,88.75,423.91,89.36Zm14.24,28.2c-.76.34-.84-.26-.48-1.25C438.05,116.46,438.27,116.79,438.15,117.56ZM488.68,92.8l.1.06C487.72,93.19,488.14,93.09,488.68,92.8ZM490,91.72a1.7,1.7,0,0,0-1-.32c.57.25.52.59.27.89C490,92.34,490.44,92.29,490,91.72ZM474.17,66.66l0,.09s0,.09,0,0l.06-.15.12-.29c.16-.31.17-.32.1-.18Z"/><path class="cls-2" d="M433.26,117a6.34,6.34,0,0,1,.93-.94A1.24,1.24,0,0,0,433.26,117Z"/><path class="cls-2" d="M435.11,57.89s0,0,.06,0a1.81,1.81,0,0,0-.29-.33Z"/><path class="cls-2" d="M492.2,120.65A2.55,2.55,0,0,1,491,120C491.23,120.47,491.62,120.82,492.2,120.65Z"/><path class="cls-2" d="M489.44,80.71l0,1.46c.15-.63.73-.62,1.21-.75C490.15,81.21,489.3,81.1,489.44,80.71Z"/><path class="cls-2" d="M507.14,79.88c-.16-.29.14-.26,0-.55l-.94-.62A.83.83,0,0,0,507.14,79.88Z"/><path class="cls-2" d="M497.16,83.11c1.86.81,1.54-.08,1.56-.94a.2.2,0,0,1-.06.12C496.26,80.75,496.69,82,497.16,83.11Z"/><path class="cls-2" d="M498.74,82a.86.86,0,0,1,.3-.63C498.09,80.72,498.69,81.48,498.74,82Z"/><path class="cls-2" d="M489.23,89.38c.61-.24-2.44-.91-1.58-.91-1.18-.57-.62.32.19,1S489.64,90.53,489.23,89.38Z"/><polygon class="cls-2" points="503.41 85.57 501.06 84.66 502.69 85.9 503.41 85.57"/><path class="cls-2" d="M499.64,89.83l1-.82a1.08,1.08,0,0,1-.7-.58C499.64,89.05,498.93,89.63,499.64,89.83Z"/><path class="cls-2" d="M500,88.43a.79.79,0,0,0,0-1A1.53,1.53,0,0,0,500,88.43Z"/><path class="cls-2" d="M503.46,87.19l-.6.06c-.16.21-.33.4-.47.61C502.74,87.63,503.11,87.41,503.46,87.19Z"/><path class="cls-2" d="M495.9,100.23c.08.43.08.83.12,1.26.69.53,1.3.52,1.21,0C496.86,101,496.71,100.45,495.9,100.23Z"/><path class="cls-2" d="M503.62,99.42a5.2,5.2,0,0,1-2,0l2.92,1Q504.1,99.9,503.62,99.42Z"/><path class="cls-2" d="M502.75,103.48c.77.5,1.15,3.07,1.92,1.27C504,104.2,503.94,102.57,502.75,103.48Z"/><polygon class="cls-2" points="486.27 114.22 486.52 114.04 484.07 109.58 486.27 114.22"/><path class="cls-2" d="M474.28,131.37c1.84.81-.37-3.14,1.37-2,.06-1.25-1.42-.93-1.3-2C473.75,128.79,473.1,128.21,474.28,131.37Z"/><path class="cls-2" d="M474.35,127.34a5.54,5.54,0,0,0,.27-.86A2.47,2.47,0,0,0,474.35,127.34Z"/><polygon class="cls-2" points="438.78 76.03 438.08 75.04 438.66 76.7 438.78 76.03"/><path class="cls-2" d="M438,79.92l-.44-3.21q0,1.49-.15,3C437.56,79.52,437.82,79.2,438,79.92Z"/><path class="cls-2" d="M417.07,92.18l.77.15c.86-.16,1-.45,1.13-1C418.33,91.57,417.7,91.87,417.07,92.18Z"/><polygon class="cls-2" points="423.05 76.26 422.89 76.49 425.81 77.07 423.05 76.26"/><path class="cls-2" d="M425.47,62.85c-.38.4-.14,1.27-.51,1.67C425.09,63.23,428.68,64.63,425.47,62.85Z"/><path class="cls-2" d="M348.07,27.64c.19,0-1.87-.37-2.24-.45C346.28,27.33,348.61,27.74,348.07,27.64Z"/><polygon class="cls-2" points="352.66 28.99 351.82 28.83 353.87 29.28 352.66 28.99"/><path class="cls-2" d="M352.54,29.44c3.53.57-.53-.27.73-.13l.8.13-2.82-.54C351.68,29.08,353.54,29.54,352.54,29.44Z"/><path class="cls-2" d="M344.89,28.37c1.38.22,1.17.26.44,0l-.35-.05S345,28.36,344.89,28.37Z"/><path class="cls-2" d="M345,28.33c-.09-.07-1.15-.16,0,0Z"/><path class="cls-2" d="M345.73,28.71l-1.21-.28c-.81-.12-1-.09-1.59-.22A21.88,21.88,0,0,0,345.73,28.71Z"/><path class="cls-2" d="M348.29,29.2l-.52-.12C347.43,29,347.31,29,348.29,29.2Z"/><path class="cls-2" d="M346.69,28.82l1.08.26c.57.09,1.71.28-.39-.1C348.43,29.16,347.43,29,346.69,28.82Z"/><path class="cls-2" d="M347.24,28.87a18.72,18.72,0,0,1,2.46.4C349.24,29.07,346.77,28.66,347.24,28.87Z"/><path class="cls-2" d="M356.18,30.09l1,.14L356,30C356.62,30.11,355.07,29.9,356.18,30.09Z"/><path class="cls-2" d="M343.84,28.83l3,.46-.86-.2C345.43,29,345,29,343.84,28.83Z"/><path class="cls-2" d="M346.8,29.29l1.27.28C348.23,29.53,347.62,29.42,346.8,29.29Z"/><polygon class="cls-2" points="352.19 29.87 349.51 29.3 352.22 29.9 352.19 29.87"/><polygon class="cls-2" points="343.69 29.11 341.96 28.78 344.57 29.28 343.69 29.11"/><path class="cls-2" d="M344,29.35c-1.44-.26-2.44-.34-3.32-.52.24.1,1.47.34,2.58.55C342.61,29.24,342.78,29.22,344,29.35Z"/><path class="cls-2" d="M344.83,29.7l-1.6-.32C343.55,29.46,344,29.56,344.83,29.7Z"/><path class="cls-2" d="M347.68,29.63c-.46-.06-1.64-.24-2.15-.28l2.11.31Z"/><path class="cls-2" d="M347.71,29.67h-.07l-.13,0Z"/><path class="cls-2" d="M347.69,29.63h0C347.89,29.67,348,29.67,347.69,29.63Z"/><path class="cls-2" d="M350.25,29.74c1.18.23,2.43.53,4.24.74C353.05,30.21,352,30.09,350.25,29.74Z"/><path class="cls-2" d="M350.33,30h.5c-.56-.08-1.38-.2-2-.32Z"/><polygon class="cls-2" points="351 30.17 350.33 30.02 350.15 30.02 351 30.17"/><path class="cls-2" d="M346.83,29.88a4.05,4.05,0,0,1,1.13.29c.42,0,.65,0,.65,0A15.55,15.55,0,0,0,346.83,29.88Z"/><path class="cls-2" d="M347.44,29.8l.12,0C347.74,29.86,347.8,29.86,347.44,29.8Z"/><path class="cls-2" d="M347.88,30.57l.38.06-.36-.06Z"/><path class="cls-2" d="M349,30.19c.41,0-.1-.07-.75-.19.21.06.34.1.35.14C348.91,30.19,349.11,30.22,349,30.19Z"/><path class="cls-2" d="M345.8,30l1.17.13C346.3,30,345.25,29.88,345.8,30Z"/><path class="cls-2" d="M347,29.75l-.1,0C346.43,29.67,346.65,29.7,347,29.75Z"/><path class="cls-2" d="M347,29.75l1.28.25-.7-.17Z"/><path class="cls-2" d="M361.43,32.72c-2-.29-3.76-.64-1.65-.39-1.46-.29-7.9-1.23-11.52-1.7.86.13,1.65.25,2.79.49s2.53.22,4.29.55c1,.24-.7,0-1.75-.14,2.45.33,3.54.65,7.13,1.16l-1.25-.27C360,32.51,360.91,32.67,361.43,32.72Z"/><path class="cls-2" d="M348.49,30.51l-.24-.07c-.35,0-1.13-.11-2.67-.29.94.2,1.67.32,2.32.42l.3-.11Z"/><path class="cls-2" d="M348.26,30.3c2.13.35,3,.57,5.33.88-.13-.11-1.77-.34-2.68-.54.5.23-1.18-.22-2.41-.3a2.79,2.79,0,0,1-.54-.17l-1-.07h.16c.27,0,.43.05.27,0h.05l.8.13a4.1,4.1,0,0,1-.8-.13l-.32-.05h0l1.15.33C348.55,30.46,348.49,30.41,348.26,30.3Z"/><path class="cls-2" d="M359.05,31.31l-.5-.08Z"/><path class="cls-2" d="M357.75,31.15a6.17,6.17,0,0,1-.92-.2c.65.08,1,.17,1.72.28-.56-.11-1.51-.32-2.55-.43l.28.06c-.74-.07-3.4-.43-3.69-.48Z"/><path class="cls-2" d="M353.55,30.8l1,.28,1.85.23-1.11-.17C355.77,31.14,354.4,30.94,353.55,30.8Z"/><polygon class="cls-2" points="346.82 30.43 344.57 30.07 347.74 30.62 346.82 30.43"/><polygon class="cls-2" points="347.06 30.63 345.11 30.34 346.28 30.55 347.06 30.63"/><path class="cls-2" d="M370.75,40.77l.56,0Z"/><path class="cls-2" d="M370.89,40.59l-1,0C370.45,40.58,370.85,40.6,370.89,40.59Z"/><path class="cls-2" d="M346.79,34.68c-1.85-.13-4.71-.34-2.49-.13l2.16.19C346.08,34.66,346.32,34.66,346.79,34.68Z"/><path class="cls-2" d="M359.49,38.28l.65,0-2.06-.16Z"/><path class="cls-2" d="M368.44,38.9l-1.4,0Z"/><path class="cls-2" d="M373,41.86l2.21.06S374.11,41.88,373,41.86Z"/><path class="cls-2" d="M347.62,32.41a9.08,9.08,0,0,0-1.31,0C347.55,32.46,349.41,32.65,347.62,32.41Z"/><path class="cls-2" d="M347.75,39.86l1.31.08C348.69,39.9,348.28,39.87,347.75,39.86Z"/><path class="cls-2" d="M346.3,32.5l.51,0c-.36-.08-.64-.15-.5-.18C345.39,32.29,344.81,32.26,346.3,32.5Z"/><path class="cls-2" d="M371.28,45.56l-.26,0C371.31,45.57,371.33,45.57,371.28,45.56Z"/><path class="cls-2" d="M349.5,48.09c-.14,0-.14,0-.17-.05S349.2,48.07,349.5,48.09Z"/><path class="cls-2" d="M346,31.16c-.13-.06-.24,0,0,0Z"/><path class="cls-2" d="M354.55,32.2l1,.16Z"/><path class="cls-2" d="M359.66,34.46h0C360.08,34.5,360,34.49,359.66,34.46Z"/><path class="cls-2" d="M347,31.24l-.64,0Z"/><path class="cls-2" d="M346,31.11h.21C345.85,31.05,345.63,31,346,31.11Z"/><path class="cls-2" d="M346.14,31.22s.07,0,.23,0l-.34,0Z"/><path class="cls-2" d="M365.42,43.63h-.21C366.11,43.66,366,43.65,365.42,43.63Z"/><path class="cls-2" d="M369.14,37.56l-.1,0H369Z"/><path class="cls-2" d="M370.75,37.79c-2.69-.27-2.36-.27-1.79-.25L362.73,37Z"/><path class="cls-2" d="M371.36,41.25h1.95c3.2.17,2.1.18,4.84.2-6.79-.19-.69-.23-7.47-.45h1.43c-.07,0,.33,0,.26,0,3.26,0-4.9-.22-3.93-.3.52,0,1.51,0,2.31,0l-1.68-.14a8.8,8.8,0,0,1,1.18,0l-.53-.14h.2l-3.41-.22c1,0,.72.05,1.56.07l-1.64-.13a23.26,23.26,0,0,1,3.21.2c6.78.22-1.7-.12,2.26-.09l.86.09c3.85.13,2.46,0,4.86.06-1.25,0-6.05-.12-7.74-.27.51,0,.76,0-.61-.12,2.42.11,1.83,0,1.69,0l3.2.16c-.92-.1-2.55-.17-4-.27.32,0,2.8.07,4.88.16.51-.07-4-.14-4.57-.28,1.23,0-.07-.13-2-.33,1.1,0,1.95.12,2.87.15l-2.55-.19c.06,0,.85,0,1.24.06-1-.09-3.19-.18-4.05-.29-3.52-.23,5.14.15,1.16-.16.9,0,1.95.12,3.19.19-2.61-.27-1.9-.21-5.42-.52l2.1,0c-2.4-.09-5.23-.35-7.55-.58l-2.66-.11-1.71-.24c.53,0,1.62.11,3,.22l-.77-.08c1.18,0,3,.18,4.81.33l-2-.09c1.94.16,4.09.32,5.95.44l-.85-.09,1.31.09c.34,0-.37,0-1.18-.11l3.56.21-1.42-.1,2.24,0c-3.58-.34-8.84-.8-10.3-1.09,2.61.24,4.26.32,7.35.55-3.27-.19,1.38.23.71.26.35,0,1.82.09,2.34.14l-3-.35c2.53.18,1.9.1,2.94.14a26.09,26.09,0,0,1-4.84-.53,17.2,17.2,0,0,1,3,.31c3.76.21-5.86-.55-2.66-.38,0,0-.22,0,.64.08-1.49-.16-.3-.17,1.16,0l0,0c.6-.07.06-.34-4.17-.73l6,.53-14.24-1.46c3.64.34,12.31,1,14.36,1.31.52,0,1.13,0-.15-.13-.52,0-5.27-.42-5.6-.48l5.63.37c-.78,0-6.48-.59-6.29-.63l6.22.59-5.59-.63c1,.12,4.75.45,6.33.57-1.1-.09.11-.08-.44-.16l-1.3-.08c.86,0-7.86-.89-7.55-1,1.15.13,7.11.74,7.82.75-2.86-.31-13.77-1.52-16-1.9l1.64.15-1.86-.3,16.88,2.06c1.3.09,1.93.18,1.79.1,1.54.14,2.33.28,2.42.3l1,0c-3.35-.34-3.34-.47-6.12-.76l3.44.54c-3.33-.34-9.48-1.09-8.87-1.16,1.33.11,5.94.66,7.06.77-1.15-.13-2.19-.34-1.37-.26l1.78.24c1.27.08-4.42-.59-1.22-.31.22,0,4.31.4,2.34.17-3.82-.38-15.61-1.68-18.47-2,.26,0,3.66.24,5.55.42,3,.3,7.11.89,9.68,1.14l-2.39-.31c.78.06,2.82.34,2.42.23a27.53,27.53,0,0,0-2.86-.36c-1-.18.7,0,.56-.08-2.19-.23-7.44-.94-8.39-1.13l2.49.28c.32-.1,1.87,0,1.91-.11.82.09,1.82.16,3.28.37-.6-.09-1.74-.25-1.82-.3,2.93.3.44.14,4,.53-2-.25-2.7-.44-3.92-.65-3-.38-.59.05.63.26-4.19-.53-8.56-1.18-10.48-1.58-1-.25,2.71.3,2.12.2.76-.11-7.28-1.15-4.24-.94,2.68.29,5.3.72,7.23,1,1,.23-1.71-.09-1.61,0l1.27.09c.88.15,1.54.3.77.23,2.4.26.5-.28,2.73-.13-.89-.15-1.8-.33-2.88-.46L359,33c-2.16-.26-3-.51-4-.59-1.5-.28-3.86-.7-2.63-.63l3,.42c-.89-.13-1.82-.2-.9,0-1.34-.23,4.13.44.16-.17l-2.11-.24c-1.51-.29-4.72-.85-3.75-.81-3-.4.34.07-3.17-.37,4.36.58-.22.22,4.37.79-4.08-.52-1.74-.13-5.22-.53,1,.13,1.92.23,1.41.25l.88.14H347l.12,0c.15,0,.18,0,0,0,.45,0,1,.1,1.53.17,2.3.37,2.21.48,3.39.69-.48,0-1.15-.18-2.22-.3l1.77.3c-2.22-.3-3.71-.38-5-.67l-.11.09c-1.26-.11-1.76-.09-.83.08-.49,0,2.44.46.71.18l1.35.34-.55-.07c-.3.13,3.65.79-.4.47.56.12,1.24.26.59.27l-1.93-.22c.67.15-2,0,0,.25-5.19-.54-1.17.21-2.1.22l2.52.3c-.16.06.55.23,1.55.44l2.23.24c1.82.28-1.61.05-1.4.21-.85-.1-.62-.11-.1-.08-5.06-.36,3.62.73-.06.5.81.11.53.11,0,.08l-.11,0s0,0,0,0l-1.19-.07,1.2.07a3.42,3.42,0,0,0,.87.21l-2.4-.22.07,0a23.19,23.19,0,0,0,2.93.29l1.44.2c-3.87-.34,1.3.23-2.83-.11,2,.21,1.49.35,5.72.76a5.77,5.77,0,0,1-.85-.09c-.48,0-1,0,.22.16l-3.05-.26,4.09.46c-1.86-.1-2.94-.17-5.29-.44,3.6.47,1.35.24,4.92.67l-2-.17c.07.05,2.71.34,1.08.23-3.76-.21-.56.44-4.07.43,5.82.38-2.61-.07,1.89.27-1.37-.08-2.15-.1-3.35-.23,1.35.23-2.19,0,1.6.41l-2.83-.21c.3,0,1.2.12.37.08s-1.15-.1-1.75-.16c.22.16,4.46.46,8.44.73-1.89-.06-1.62,0,1,.21a29.21,29.21,0,0,1-3.13-.22c-.19,0-1.92.17,1.27.37-.81,0-.24,0,.12.08-.19.09-.48.08-.19.2h.53c3.84.26.85.13,1.31.24l-.4,0c-2.78,0,1.33.15-1.85.16l2.4.11c5.15.29-3,0-1.08.21l1.37,0c1.76.14-7-.17-7.66-.14a7.35,7.35,0,0,1-1.05-.09c-3.05,0,3.13.17,3.86.32-1.7-.05-4.31-.22-4.62-.15-1.38,0,5.48.47,2.23.45,1.3,0,2.61.06,3.59.15.46.1-4.94,0-.83.27l-1,0c1.06.1,1.76.27,4,.38-8.28-.21,4,.5-3.62.28l.4.2-.78,0c-.51.11,1.32.2,3.15.29-.52,0-1.23,0-1.63,0-1.54.14-1.22.18,2.59.4l-2.48,0c1.44.06-3.89.2-1,.43l-1.11,0c2.91.23-6.88.45,2.15.59l2.22.14c.7-.16,3.92,0,5.42,0a19.84,19.84,0,0,1-3.19.07h.45c-4.7,0-1.66.2-4.87.19.23.33-2.37.68-2.57,1l3.66-.08-.21.11a18.86,18.86,0,0,1-2.71,0c-2.07.07,1.74.11,2.54.1-1.48.18-4.27,0-4.36.05l.28.06.42,0a17.1,17.1,0,0,1,2.9.11c-.73.07-2.25.07-2.39.09s-.38,0-.11,0l-.31.15,2.89-.11a15.74,15.74,0,0,0,3.12,0c-5,.19-1.8.55-3.36.64,2.1,0,2.07.11,1.82.22a30.14,30.14,0,0,1,3.45,0c-6.7.17-2.9.24-7.72.48,3.19-.17.8.24,5.33,0-.54.09-2.5.09-4.08.21,2.6.08-1.67.47-.78.67.88,0,2.22-.13,3.53-.15l-4.39.32c.43,0,5.07-.19,2,0,.74,0,1.85-.11,2.13-.1-4.26.67,3.55.67-4.46,1.61,1.7-.17,1.87-.14,1.94-.09.4-.06,2.17-.15,3.36-.23l-3.3.41c3.31-.19.24.18,3.4,0l-.57,0c3.72-.18,8.26-.67,13-1-4.23.2,6.26-.6.19-.32,1-.09,1.55-.08,2.65-.16-2.05.1-2.48.09-1.56,0l.51,0c-.51-.15,1.5-.35,2.83-.61l-2.36.14c.32-.06,1.06-.11,1.65-.16-3.59.14-.2.13-4.16.3,4.81-.32.06-.32,5.53-.63,0-.07-2.74.15-2.71.08l1.48-.08-1.91.07c.32-.06,2.17-.17,3.42-.23-.15,0,.35,0,.46,0,1.74-.13-.6-.12,0-.17l-.9.11c-1.4-.12.53-.41-2.48-.47l-1.12,0c-2.07-.06,1.23-.15.27-.27h.26a5.37,5.37,0,0,1-1.55-.06c1.31,0,2.54-.15,4-.14-2.22-.08-1.74,0-5.9,0l1.85-.07a29.46,29.46,0,0,1-3,0c1.59,0,2.82-.12,4.93-.1,4.05-.24-4.1-.14,1.83-.34-5.14,0-2.85.2-3.95.18a16.11,16.11,0,0,1-3.32,0l1.07-.06,2.24-.08a27.86,27.86,0,0,0,3.15-.19s.37,0,.35,0c1.3-.07-1.78-.06.35-.15-3.11,0,.17-.08-3.78,0l.91.1c-1,0-5.66,0-3.42-.2l2.44,0c1.16,0-.78-.05.42-.1,4,0,.86.13,3.88.16,1.67,0-2.87-.09,1.42-.11-5.45,0,.69-.12-3.48-.16l2.38,0c-.38,0-1.5,0-1.44,0h3.08c-2.63,0,2.29-.14.86-.18.08.12-2.86,0-4.59.11-3.17-.15,6.21-.13,5.07-.3a18.38,18.38,0,0,1-2.52.06c.49,0,1.4-.08,2.64-.1-.49-.12-2.44,0-3.9,0,2.89,0-1.17-.06-2.1-.11h2.41c1.55-.14-5-.05-3.15-.17l3.34.06-.86-.07,2.74,0c-2-.07-1.51-.09-.74-.16-1.7,0-4.38,0-4.45-.1,1.43,0,2.29,0,1.95,0,1.51,0,3.4.07,1.18.09l2.29,0c1.65,0,.37-.11.35-.14a4,4,0,0,1-.56,0l-3.34-.16c.9,0,1.63,0,2.34,0-.26,0-1.36-.06-1.57-.1,2,0,4,.06,4.9.12l-2.17-.14c.85,0,2.34,0,3.07,0,1.15,0-3.81-.2-2.28-.26l-1-.05c.45-.08,2.85-.09.17-.25l3.51,0c-.79-.09-4.43,0-5.75-.19-1.12-.11,3,0,4,0-1.77-.08-5.37-.26-2.51-.27C371.62,41.21,371.1,41.22,371.36,41.25Zm-1.52-1c.5,0,2.06.14.64.1C367.72,40.22,369,40.26,369.84,40.26Zm-5.72-1.83c.8.07.4.07-.51,0C363.41,38.43,363.5,38.42,364.12,38.43Zm-16.2-6.62.12,0C347.1,31.76,347.47,31.79,347.92,31.81Zm1.05,0-1-.14c.6.09.64.12.47.13C349.07,31.9,349.51,31.94,349,31.83Zm.22,12.36.63,0C350.51,44.2,349.88,44.19,349.19,44.19Z"/><path class="cls-2" d="M367.4,38.83l-1.31-.08Z"/><path class="cls-2" d="M372.61,41.84H373Z"/><path class="cls-2" d="M369.07,35.94l-1.24-.11A11.55,11.55,0,0,0,369.07,35.94Z"/><path class="cls-2" d="M345,30.64l.61.17c-.12-.06.41,0,.79,0C345.85,30.77,345,30.67,345,30.64Z"/><path class="cls-2" d="M359.86,32.23a3.18,3.18,0,0,0-.33-.08l-1.1-.17A7.31,7.31,0,0,0,359.86,32.23Z"/><path class="cls-2" d="M353,31.72c2,.29,1.33.15,1,.05,0,0,0,0,0,0C351.11,31.35,352,31.54,353,31.72Z"/><path class="cls-2" d="M353.85,31.74c-.09,0-.14,0,0,0C352.68,31.52,353.57,31.68,353.85,31.74Z"/><path class="cls-2" d="M347.66,31.5c.52.05-2.57-.37-1.74-.27C343.36,30.85,349,31.83,347.66,31.5Z"/><polygon class="cls-2" points="359.57 32.65 357.09 32.31 359.08 32.62 359.57 32.65"/><path class="cls-2" d="M357.7,32.75l.69,0-.84-.14C357.46,32.66,357,32.64,357.7,32.75Z"/><path class="cls-2" d="M357.55,32.63c.05,0,0-.05-.4-.12A1,1,0,0,0,357.55,32.63Z"/><polygon class="cls-2" points="360.3 32.86 359.78 32.8 359.59 32.83 360.3 32.86"/><path class="cls-2" d="M357.11,33.47l.7.17c.85.12,1.38.17,1,.09C358.26,33.64,357.93,33.57,357.11,33.47Z"/><path class="cls-2" d="M363.94,34.13l-1.89-.21,3.08.41Z"/><path class="cls-2" d="M364.63,34.44a17.62,17.62,0,0,0,2.26.31C366,34.63,365.34,34.47,364.63,34.44Z"/><polygon class="cls-2" points="360.6 35.09 360.56 35.06 355.5 34.49 360.6 35.09"/><path class="cls-2" d="M372.62,37.29c1.22.05-3.13-.32-1.61-.24-1.19-.14-1.24-.07-2.27-.19C370,37,369.28,37,372.62,37.29Z"/><path class="cls-2" d="M368.74,36.86l-.77-.1Z"/><polygon class="cls-2" points="346.79 48.52 345.73 48.67 347.44 48.5 346.79 48.52"/><path class="cls-2" d="M350.56,48.39l-3.23.25,2.93-.17C350.11,48.46,349.83,48.45,350.56,48.39Z"/><path class="cls-2" d="M376.37,40.42l-.78,0a8.08,8.08,0,0,0-1,0Z"/><polygon class="cls-2" points="373.92 40.95 373.99 40.94 371.06 40.86 373.92 40.95"/><path class="cls-2" d="M377.65,41.57c.12,0-.54,0-.41-.07C377.77,41.56,374,41.49,377.65,41.57Z"/></g></svg>